<?xml version="1.0" standalone="no"?><!DOCTYPE svg PUBLIC "-//W3C//DTD SVG 1.1//EN" "http://www.w3.org/Graphics/SVG/1.1/DTD/svg11.dtd"><svg t="1591756100123" class="icon" viewBox="0 0 1024 1024" version="1.1" xmlns="http://www.w3.org/2000/svg" p-id="18875" xmlns:xlink="http://www.w3.org/1999/xlink" width="200" height="200"><defs><style type="text/css"></style></defs><path d="M939.257081 831.238919a469.019676 469.019676 0 0 0-101.071567-149.863784 471.04 471.04 0 0 0-149.863784-101.071567c-0.498162-0.276757-0.996324-0.387459-1.494487-0.636541a310.327351 310.327351 0 0 0 128.913298-252.070054C815.740541 155.814054 676.531892 16.605405 504.748973 16.605405 332.938378 16.605405 193.72973 155.814054 193.72973 327.596973c0 103.728432 50.784865 195.667027 128.913297 252.208432-0.498162 0.249081-0.996324 0.359784-1.494486 0.608865a466.971676 466.971676 0 0 0-149.863784 101.099244 471.04 471.04 0 0 0-101.071568 149.863783A466.141405 466.141405 0 0 0 33.210811 1004.544a10.04627 10.04627 0 0 0 10.04627 10.295351H118.451892c5.535135 0 9.907892-4.400432 10.04627-9.797189a373.898378 373.898378 0 0 1 110.093838-256.19373 373.732324 373.732324 0 0 1 266.129297-110.232216c100.573405 0 195.002811 39.133405 266.101622 110.232216a373.898378 373.898378 0 0 1 110.093838 256.19373c0.138378 5.535135 4.511135 9.797189 10.04627 9.797189h75.250162a10.04627 10.04627 0 0 0 10.018595-10.295351 467.303784 467.303784 0 0 0-37.002379-173.305081z m-434.508108-287.93773a214.292757 214.292757 0 0 1-152.492973-63.211243 214.292757 214.292757 0 0 1-63.211243-152.492973c0-57.565405 22.417297-111.726703 63.211243-152.492973a214.292757 214.292757 0 0 1 152.492973-63.183568c57.565405 0 111.726703 22.417297 152.492973 63.211244a214.292757 214.292757 0 0 1 63.183568 152.492973c0 57.565405-22.417297 111.726703-63.183568 152.492973a214.292757 214.292757 0 0 1-152.492973 63.183567z" p-id="18876" fill="#0ff7ab"></path></svg>