<?xml version="1.0" standalone="no"?><!DOCTYPE svg PUBLIC "-//W3C//DTD SVG 1.1//EN" "http://www.w3.org/Graphics/SVG/1.1/DTD/svg11.dtd"><svg t="1591756039270" class="icon" viewBox="0 0 1024 1024" version="1.1" xmlns="http://www.w3.org/2000/svg" p-id="16477" xmlns:xlink="http://www.w3.org/1999/xlink" width="200" height="200"><defs><style type="text/css"></style></defs><path d="M922.647584 834.402862h-46.857431V301.064154c0-15.636345-9.288918-29.260092-23.428716-36.12357L618.641939 142.946127a50.170478 50.170478 0 0 0-40.974449 0c-14.655848 5.882981-23.893161 20.022779-23.428716 97.120798v655.333166h-46.85743V175.14771c0-79.059013 0-90.773371-17.545734-97.120799a60.032213 60.032213 0 0 0-46.857431 0L175.56055 219.06365c-14.139797 6.811873-23.428715 21.467722-23.428715 37.104067v578.751196H105.274404c-11.714358 0-17.545734 6.347427-17.545734 12.178804v67.809102c0 5.831376 5.831376 12.178804 17.545734 12.178803h817.321574c5.36693 0 16.616842-6.347427 17.545734-12.178803v-67.344656c1.548153-7.327924-11.146702-13.159301-17.494128-13.159301zM373.672529 748.531976a12.075593 12.075593 0 0 1-12.178803 12.178804H295.594013a12.075593 12.075593 0 0 1-12.178804-12.178804v-57.075241a12.075593 12.075593 0 0 1 12.178804-12.178803h67.344656a12.075593 12.075593 0 0 1 12.178803 12.178803l-1.444943 57.075241z m0-172.257824a12.075593 12.075593 0 0 1-12.178803 12.178804H295.594013a12.075593 12.075593 0 0 1-12.178804-12.178804v-58.055737a12.075593 12.075593 0 0 1 12.178804-12.178804h67.344656a12.075593 12.075593 0 0 1 12.178803 12.178804l-1.444943 58.055737z m0-171.793378a12.075593 12.075593 0 0 1-12.178803 12.178804H295.594013a12.075593 12.075593 0 0 1-12.178804-12.178804V345.960591a12.075593 12.075593 0 0 1 12.178804-12.178804h67.344656a12.075593 12.075593 0 0 1 12.178803 12.178804l-1.444943 58.520183z m385.025652 343.535151a12.075593 12.075593 0 0 1-12.178804 12.178804h-67.344655a12.075593 12.075593 0 0 1-12.178804-12.178804v-57.591292a12.075593 12.075593 0 0 1 12.178804-12.178803h67.344655a12.075593 12.075593 0 0 1 12.178804 12.178803v57.591292z m0-172.257824a12.075593 12.075593 0 0 1-12.178804 12.178804h-67.344655a12.075593 12.075593 0 0 1-12.178804-12.178804v-57.591292a12.075593 12.075593 0 0 1 12.178804-12.178803h67.344655a12.075593 12.075593 0 0 1 12.178804 12.178803v57.591292z m0-171.741773a12.075593 12.075593 0 0 1-12.178804 12.178804h-67.344655a12.075593 12.075593 0 0 1-12.178804-12.178804V345.960591a12.075593 12.075593 0 0 1 12.178804-12.178804h67.344655a12.075593 12.075593 0 0 1 12.178804 12.178804v58.055737z m0 0" fill="#0ff7ab" p-id="16478"></path></svg>