<?xml version="1.0" standalone="no"?><!DOCTYPE svg PUBLIC "-//W3C//DTD SVG 1.1//EN" "http://www.w3.org/Graphics/SVG/1.1/DTD/svg11.dtd"><svg t="1591762560663" class="icon" viewBox="0 0 1024 1024" version="1.1" xmlns="http://www.w3.org/2000/svg" p-id="12496" xmlns:xlink="http://www.w3.org/1999/xlink" width="200" height="200"><defs><style type="text/css"></style></defs><path d="M320 310.784H230.912v0.512h103.424c-4.608-0.512-9.216-0.512-14.336-0.512z" p-id="12497" fill="#457f84"></path><path d="M732.672 536.064c30.208-32.256 50.176-74.752 53.76-121.856V311.296h-103.424c-20.48 1.536-39.936 6.144-57.856 13.312 13.312-60.928-1.024-126.464-44.544-175.104L506.368 76.288 432.128 151.552c-41.472 48.64-56.32 112.128-45.056 170.496-16.896-6.144-34.304-9.728-52.736-11.264H230.4v89.088c0 4.608 0 9.728 0.512 14.336 3.584 47.104 23.04 89.6 53.76 121.856H230.912v113.152c8.192 112.64 101.888 201.728 216.576 201.728h27.136V947.2h71.68v-96.256h38.912c112.64-8.192 201.728-101.888 201.728-216.576v-98.304h-54.272z m-47.104-153.088h28.672v28.672c-5.632 64.512-60.416 114.688-125.44 114.688h-17.92v-17.92c0-65.024 50.176-119.808 114.688-125.44zM485.376 199.68l22.016-22.528 20.992 20.48c42.496 50.176 38.912 125.952-8.192 174.08l-13.824 14.336-13.824-12.288c-47.104-46.08-50.176-121.856-7.168-174.08zM302.592 382.976h28.672c64.512 5.632 114.688 60.416 114.688 125.44v17.92h-17.92c-65.024 0-119.808-50.176-125.44-114.688v-28.672z m144.896 396.288c-75.264 0-138.24-57.856-144.896-132.608v-38.912h38.912c67.584 5.632 121.344 57.856 131.072 123.392 0 2.048-0.512 4.096-0.512 6.144v41.472h-24.576z m267.776-144.896c0 75.264-57.856 138.24-132.608 144.896h-36.352v-55.808c13.824-66.048 72.704-115.2 142.336-115.2h26.624v26.112z" p-id="12498" fill="#457f84"></path></svg>