<?xml version="1.0" standalone="no"?><!DOCTYPE svg PUBLIC "-//W3C//DTD SVG 1.1//EN" "http://www.w3.org/Graphics/SVG/1.1/DTD/svg11.dtd"><svg t="1591782968680" class="icon" viewBox="0 0 1024 1024" version="1.1" xmlns="http://www.w3.org/2000/svg" p-id="13749" xmlns:xlink="http://www.w3.org/1999/xlink" width="200" height="200"><defs><style type="text/css"></style></defs><path d="M575 530.3c0.2 0.3 0.5 0.6 0.7 0.9-0.3-0.2-0.6-0.5-0.9-0.7l0.2-0.2z" p-id="13750" fill="#0ff7ab"></path><path d="M462.9 38.9c2.6 0.6 5.3 0.9 7.9 1.8 14.5 5 25.2 13.9 29.8 29.1 0.2 0.8 0.2 1.7 0.8 2.4V78c-9.8 4.9-18.6 1.7-26.8-3.8-9.4-6.3-15.8-15.2-21-25-1.3-2.4-2.4-4.9-3.4-7.4-0.4-0.9-0.2-1.4 0.7-1.6 1.8-0.4 3.6-0.9 5.4-1.3h6.6z m1 11.2c0 0.6 0.3 0.8 0.5 0.9 11.5 8.3 23 16.6 34.5 25 0.3 0.2 0.7 1.2 1.2 0.4 0.4-0.6 0.5-1.2-0.3-1.8-2.7-1.7-5.2-3.6-7.8-5.4l-17.1-11.7c-3.6-2.5-7.3-4.9-11-7.4z m-0.8 0c0.1-0.1 0.2-0.2 0.3-0.4-0.6-0.4-1-0.9-1.9-0.8 0.5 0.4 1.1 0.8 1.6 1.2z" p-id="13751" fill="#0ff7ab"></path><path d="M501.3 78.1v-5.8-4.5c0-0.5 0.1-1.1 0.2-1.6 0.3-1.1 0.9-2 2.2-1.9 1.2 0.1 1.7 1 2 2 0.1 0.5 0.1 1 0.2 1.5 0 4.1 0.1 8.3 0.1 12.4 0.1 11.8 0.1 23.7 0.2 35.5v3.5c0 7.7 0 15.3 0.1 23 0.2 12.1 0.1 24.2 0.2 36.3v4.3c0 0.6 0.1 1.1 0.1 1.7 0.1 17 0.2 34 0.2 51v3.3c0.2 2.3 0.3 4.6 0.2 7v18c0 4.7 0.1 9.5 0.1 14.2 0.1 9.9 0.1 19.9 0.2 29.8-0.3 0.3-0.1 0.6-0.1 1 0.1 2.1 0.4 4.2-0.2 6.2 0.7 17 0.2 34 0.6 51v8.3c0 12.3 0 24.5 0.1 36.8 0.1 9.1 0.1 18.3 0.2 27.4v3.4c0 7.6 0 15.1 0.1 22.7 0.2 13.7 0.2 27.5 0.2 41.2 0.4 3.3 0.2 6.7 0.2 10.1v16c0 13 0.1 25.9 0.2 38.9 0 3.2 0.1 6.4 0.2 9.7v12.1c14.8-10.1 29.2-20.1 43.7-30-0.2 1.1-1 1.4-1.7 1.8-13 9.4-26 18.8-39.1 28.1-2.5 1.8-3.3 3.7-2.9 6.5 0 8.9 0 17.8 0.1 26.7 0.2 9.7 0.1 19.4 0.2 29.1V666c0 0.5-0.3 1.1 0.3 1.3 0.3 0.1 0.8-0.3 1.2-0.6 6.6-4.5 13.2-9.1 19.7-13.6 6-4.1 11.9-8.3 17.9-12.3 1-0.7 1.9-1.7 3.2-1.9 0 0.5-0.2 0.6-0.4 0.7-3.3 2.4-6.7 4.9-10 7.3-10.4 7.5-20.7 14.9-31.1 22.4-0.4 0.3-0.8 0.4-0.6 1 0.3 1.4 0.1 2.8 0.1 4.2-0.4 1.2-0.2 2.4-0.2 3.6 0.1 12.6 0.1 25.2 0.2 37.8l0.3 25.6V753c0 0.3-0.2 0.8 0.2 1 0.4 0.2 0.6-0.2 0.9-0.4 7.4-5.1 14.8-10.3 22.2-15.4l16.5-11.4c1.6-1.1 3.2-2.1 4.9-3.2 0.1 0.7-0.2 0.8-0.5 1-5.2 3.8-10.5 7.5-15.7 11.3-8.3 6-16.6 12-24.9 17.9-3.8 2.7-3.9 2.6-3.7 7.3 0 8.3 0 16.6 0.1 25 0.2 13.8 0.1 27.5 0.2 41.3v11.5c0.5 4.5 0 9 0.3 13.7 1-0.6 1.9-1.1 2.7-1.7 9.8-6.8 19.7-13.6 29.5-20.5 5.1-3.6 10.2-7.2 15.4-10.7 2.1-1.4 4-3.1 6.3-4.1 0 0.5-0.3 0.7-0.7 0.9-6.9 4.9-13.8 9.9-20.7 14.8-9.4 6.8-18.8 13.7-28.3 20.3-3 2.1-5.1 4-4.2 7.9 0 11.6 0.1 23.1 0.1 34.7 0.1 10.1 0.2 20.2 0.2 30.3 0 7.8 0 15.6 0.1 23.3 0 7.9 0.1 15.8 0.2 23.6 0 2-0.4 3.9-1.2 5.7-1.4 2.8-3.4 5.1-7.6 4.5-4.6-1.9-6-5.8-6-10.3 0-14.2 0.1-28.5 0.2-42.7 0.1-24.2 0.2-48.5 0.4-72.7 0.1-12.9 0.2-25.8 0.2-38.8v-13.3c0.3-10.5 0.2-21.1 0.3-31.6 0.1-8 0-16 0.1-24.1 0.1-9.8 0.2-19.7 0.2-29.5v-6.2c0-2.2 0-4.4 0.1-6.5l0.3-65.1c0-2.9 0.3-5.7-0.1-8.6-0.2-1.1 0.4-2.2-0.8-3.1-13.9-10-27.9-20-41.8-30-0.8-0.6-1.9-1.1-2.4-2.1 0.6 0.2 1 0.4 1.5 0.7 2.8 1.9 5.6 3.9 8.5 5.8 4.3 3 8.7 6 13 9l21 14.4c1 0.7 1.3 0.4 1.3-0.7v-7.1c0-10.6 0-21.2 0.1-31.8 0.1-10.2 0.2-20.4 0.2-30.6v-4.1c0-2.6 0-5.2 0.1-7.7l0.3-65.4c0-1.6 0.2-3.1 0-4.7v-3.5c-0.5 1.5-1 1-1.6 0.6-13.2-9.6-26.5-19.1-39.8-28.7-1.2-0.8-2.5-1.5-3.2-2.9 14.8 10.2 29.7 20.4 44.5 30.6-0.5-2.5 0.4-4.7 0.3-7 0-12.6 0-25.1 0.1-37.7 0-8.4 0.1-16.8 0.2-25.3V395c0-3.7 0.1-7.5 0.1-11.2l0.3-51.2c-0.3-1.3 0.5-2.6 0-3.9 0-6.3 0.1-12.5 0.1-18.8 0.1-11.1 0.2-22.1 0.2-33.2 0-1 0-1.9-0.1-2.9 0-2.9 0-5.9 0.1-8.8l0.3-28.8c0.1-9.9 0.1-19.8 0.1-29.7 0-0.6 0-1.2-0.1-1.8v-8c0.5-0.4 0.2-0.9 0.2-1.4 0-12.4 0.1-24.8 0.1-37.2 0-5.4 0.1-10.8 0.2-16.2v-6.7c0-10.5 0-21 0.1-31.5 0.4-8.7 0.5-17.2 0.5-25.6z" p-id="13752" fill="#0ff7ab"></path><path d="M497.1 803.5v13.3c-2.4 0.8-4.6 1.9-7.1 2.5-8.1 1.7-15.8 0.3-23.2-2.8-10.8-4.6-19.7-11.8-27.4-20.6-9.6-10.9-16.9-23.3-22.4-36.8-0.9-2.1-0.9-2.1 1.4-2.8 8-2.6 16.2-2.7 24.4-0.8 18.2 4.1 33.5 13.1 44.7 28.4 4.2 5.7 7.2 12.1 9.2 19 0.2 0.1 0.1 0.5 0.4 0.6z m-60.9-33l0.3 0.3c0.6 0.8 1.4 1.4 2.4 1.5 0.1 1 1 1 1.6 1.3-0.3-0.7-0.9-1.1-1.6-1.3-0.7-0.7-1.4-1.3-2.4-1.5l-0.3-0.3c-0.1-0.3-0.3-0.5-0.6-0.5l-0.1 0.1c0.1 0.3 0.4 0.4 0.7 0.4z m5 3.2c-0.1 0.6 0.1 0.8 0.3 0.9 8.9 6.4 17.7 12.7 26.6 19.1 6.1 4.4 12.2 8.8 18.2 13.1 2.9 2.1 5.8 4.2 8.7 6.2 0.3 0.2 0.8 0.8 1.2 0 0.3-0.5 0.4-1-0.3-1.4-0.2-0.1-0.4-0.3-0.6-0.4-6.3-4.3-12.6-8.6-18.9-13-9-6.2-17.9-12.4-26.9-18.7-2.6-1.9-5.4-3.8-8.3-5.8z" p-id="13753" fill="#0ff7ab"></path><path d="M497.8 705.6c0 2.2 0 4.4-0.1 6.5v6.2c-2.4 1-4.8 2-7.4 2.4-7.3 1.2-14.1-0.3-20.7-3.3-10.5-4.8-18.9-12.1-26.1-21-7.5-9.3-13.4-19.5-17.9-30.6-0.5-1.3-0.4-1.8 1-2.2 8.2-2.6 16.5-2.4 24.8-0.3 11.9 3 22.4 8.8 31.3 17.3 6.8 6.5 11.6 14.5 14.5 23.4 0.1 0.7 0 1.3 0.6 1.6z m-54-28.5l0.3 0.3c0.9 1 1.9 1.8 3.2 2.2-0.9-0.9-1.9-1.9-3.2-2.2l-0.3-0.3c-0.1-0.3-0.3-0.3-0.6-0.3-0.1-0.8-0.7-0.9-1.4-1 0.3 0.5 0.7 0.9 1.4 1 0.1 0.2 0.3 0.3 0.6 0.3z m4.2 2.7c-0.1 0.1-0.2 0.2-0.2 0.3 0.1 0.1 0.2 0.3 0.4 0.4 3.4 2.4 6.8 4.8 10.2 7.3 6.2 4.5 12.4 8.9 18.6 13.4 6.2 4.5 12.4 8.9 18.7 13.3 0.4 0.3 0.9 1.1 1.5 0.3 0.5-0.7 0.2-1.2-0.5-1.7-7.8-5.4-15.7-10.8-23.5-16.2-7.4-5.1-14.8-10.2-22.2-15.4-1.1-0.4-2.1-1-3-1.7zM498.7 544.6c0 2.6 0 5.2-0.1 7.7v4.1c-4.3 2-8.9 3-13.6 2.6-6.1-0.5-11.7-2.7-16.9-5.7-10.2-5.9-18.1-14.3-24.6-24-4.4-6.5-8.1-13.4-11-20.6-0.8-2-0.8-2 1.3-2.7 7.7-2.4 15.5-2.1 23.1 0.1 14.7 4.2 26.9 11.9 35.5 24.9 2.5 3.8 4.4 7.9 5.8 12.3 0 0.5-0.1 1.1 0.5 1.3z m-46-23.8c-0.1 0.8 0.3 0.9 0.6 1.1 14.6 10.5 29.1 21 43.7 31.5 1 0.7 1 0.2 1.3-0.5 0.2-0.8-0.3-1.1-0.8-1.4L463 527.8c-3.4-2.2-6.8-4.6-10.3-7z m-3.6-2.2c0.5 0.8 1.1 1.1 1.7 1.2-0.3-0.6-0.8-1-1.7-1.2z m3.2 2.1c-0.2-0.2-0.3-0.4-0.4-0.5-0.1-0.1-0.3 0-0.4 0-0.1 0.3 0.1 0.5 0.3 0.6 0.1 0.1 0.2 0 0.5-0.1z m-4.2-2.9s0-0.1 0 0c-0.1-0.1-0.1-0.1-0.2-0.1 0.1 0.1 0.1 0.1 0.2 0.1-0.1 0 0 0 0 0zM498.3 618.8v7.1c0 1.1-0.3 1.4-1.3 0.7l-21-14.4c-4.4-3-8.7-6-13-9-2.8-1.9-5.6-3.9-8.5-5.8-0.4-0.3-0.9-0.6-1.5-0.7 0.5 1.1 1.6 1.5 2.4 2.1 13.9 10 27.8 20.1 41.8 30 1.3 0.9 0.7 2.1 0.8 3.1-8.1 3.8-16.2 2.9-24.2-0.4-10.1-4.2-18.1-11.1-24.9-19.5-7-8.5-12.4-18-16.6-28.2-0.7-1.8-0.7-1.8 1.1-2.4 7.6-2.4 15.3-2.2 22.8-0.1 14.4 4 26.5 11.5 35.2 23.9 2.6 3.7 4.6 7.8 6.1 12.1 0.3 0.5 0.4 1.1 0.8 1.5z m-49.4-25.1l0.3 0.3c0.1 0.2 0.4 0.3 0.6 0.3 0 0.6 0.5 0.6 0.9 0.6 0.2 1 1 1 1.6 1.3-0.3-0.7-0.9-1.1-1.6-1.3-0.2-0.4-0.5-0.6-0.9-0.6-0.1-0.2-0.4-0.3-0.6-0.3l-0.3-0.3c-0.1-0.3-0.3-0.3-0.6-0.3-0.1-0.6-0.5-0.7-1.1-0.8 0.2 0.6 0.6 0.8 1.1 0.9 0.1 0.2 0.4 0.2 0.6 0.2zM499.2 463.6c0.1 2.3-0.7 4.6-0.3 7-14.8-10.2-29.7-20.4-44.5-30.6 0.7 1.5 2 2.1 3.2 2.9 13.2 9.6 26.5 19.1 39.8 28.7 0.6 0.4 1.1 0.9 1.6-0.6v3.5c-7.1 3.5-14.3 3.1-21.4 0.4-9.5-3.5-17.1-9.7-23.7-17.3-7.2-8.3-12.7-17.7-16.9-27.8-0.8-2-0.8-2 1.3-2.7 6.8-2 13.6-1.9 20.3-0.2 14.9 3.9 27.2 11.7 35.4 25.1 1.9 3.1 3.4 6.3 4.5 9.7 0.1 0.7 0.2 1.4 0.7 1.9z m-48.8-26v-0.1h-0.1s0.1 0 0.1 0.1c0.1 0.2 0.4 0.3 0.6 0.3 0.3 0.8 0.8 1 1.6 1.1-0.4-0.5-0.9-1-1.6-1.1-0.1-0.3-0.3-0.3-0.6-0.3zM499.9 328.4c0.5 1.3-0.3 2.6 0 3.9-2.1 0.9-4.2 2-6.5 2.5-6.3 1.2-12.2-0.1-17.9-2.9-9.2-4.5-16.2-11.4-22.2-19.5-4.6-6.2-8.2-12.9-11.1-20.1-0.7-1.7-0.7-1.8 1.1-2.3 6.3-1.9 12.6-1.8 18.8-0.1 13.6 3.7 24.8 10.9 32.1 23.3 2.6 4.5 4.4 9.3 5.3 14.4 0.1 0.3 0.1 0.6 0.4 0.8z m-42.8-27.3c0 0.4 0.1 0.7 0.5 0.8 0.2 0 0.3-0.1 0.3-0.3-0.1-0.4-0.4-0.4-0.8-0.5-0.4-0.6-1-0.9-1.9-1.2 0.6 0.9 1.1 1.3 1.9 1.2z m2.1 1.5c-0.2-0.3-0.3-0.5-0.7-0.5-0.1 0-0.1 0.2-0.1 0.2 0.2 0.5 0.5 0.3 0.8 0.3 0 0.4 0.2 0.7 0.5 0.9 3 2.2 6 4.3 9.1 6.5 7.1 5.1 14.2 10.3 21.2 15.4 2.3 1.7 4.6 3.3 6.8 5 0.8 0.6 1.3 0.4 1.5-0.6 0.1-0.7-0.4-0.9-0.8-1.1-4.7-3.2-9.4-6.4-14-9.7-5.1-3.5-10.1-7-15.2-10.4-3-2-5.9-4.3-9.1-6z m-4.4-3.1s0-0.1 0 0l-0.1-0.1v0.2c0-0.1 0-0.1 0.1-0.1z" p-id="13754" fill="#0ff7ab"></path><path d="M499.5 394.8v5.9c-3.6 1.8-7.4 2.9-11.5 2.7-5.3-0.2-10.1-1.9-14.6-4.4-9.8-5.5-17.1-13.5-23.1-22.9-3.2-4.9-5.9-10.1-8.1-15.6-0.7-1.8-0.7-1.8 1.1-2.3 6.8-2 13.6-1.7 20.3 0.3 12.8 3.9 23.5 10.8 30.5 22.6 2.4 4.1 4.1 8.4 5.1 13 0.1 0.2 0.2 0.4 0.3 0.7z m-45.1-27.3v-0.1h-0.1c0 0.1 0 0.1 0.1 0.1 0.1 0.3 0.4 0.3 0.6 0.3l0.3 0.3c0.5 0.8 1.2 1.3 2.2 1.3-0.7-0.5-1.3-1.2-2.2-1.3l-0.3-0.3c-0.2-0.2-0.4-0.3-0.6-0.3z m4.2 3.1c0-0.2 0-0.5-0.4-0.5l-0.1 0.1c0 0.3 0.3 0.3 0.5 0.4 0.2 0.5 0.7 0.7 1.1 1 3.3 2.4 6.6 4.7 9.9 7.1 9 6.6 18.1 13.1 27.1 19.7 0.3 0.2 0.7 1.1 1.3 0.2 0.4-0.7 0.4-1.2-0.4-1.8l-14.4-9.9-21-14.4c-1.2-0.7-2.1-1.8-3.6-1.9z" p-id="13755" fill="#0ff7ab"></path><path d="M500.2 264.8c0 2.9 0 5.9-0.1 8.8-7.7 4-15.3 2.9-22.7-0.6-9.2-4.2-16.3-11-22.2-19-4.9-6.5-8.8-13.6-11.9-21.2-0.4-1.1-0.3-1.4 0.8-1.8 6.8-2.2 13.7-1.9 20.4 0.1 13 3.8 23.7 10.8 30.8 22.7 1.8 3 3.2 6.3 4.3 9.7 0.1 0.4 0.1 1 0.6 1.3z m-39.9-21.5c-0.1 0.5 0.2 0.6 0.4 0.8 12.4 9 24.8 18 37.3 26.9 0.3 0.2 0.8 1.1 1.3 0.2 0.4-0.6 0.3-1.2-0.4-1.7-1.6-1.1-3.1-2.2-4.7-3.3-10.8-7.4-21.7-14.8-32.5-22.3-0.4-0.1-0.8-0.5-1.4-0.6z m-0.7-0.3c-0.4-0.5-0.7-1.2-1.7-1.2 0.5 0.8 1.1 1.1 1.7 1.2z m-1.9-1.4c-0.3-0.5-0.5-0.7-1-0.6 0.1 0.4 0.3 0.6 1 0.6zM500.5 196.5v8c-6.7 3.5-13.5 2.8-20.1 0-8.5-3.6-15.2-9.6-20.9-16.8-5.1-6.5-9.1-13.7-12.3-21.3-0.5-1.3-0.2-1.7 1-2.1 6.9-2 13.7-1.6 20.4 0.6 11.6 3.8 21.3 10.3 27.6 21.1 1.9 3.3 3.3 6.8 4.3 10.5z m-41.6-23.3s0-0.1-0.1-0.1h-0.1c0.1 0 0.2 0 0.2 0.1l0.3 0.3c0.1 0.2 0.4 0.3 0.6 0.3 0 0.6 0.5 0.6 0.9 0.6 0 0.3 0.1 0.6 0.5 0.6 0.1 0 0.2-0.1 0.2-0.2-0.1-0.4-0.4-0.4-0.7-0.4-0.2-0.4-0.5-0.6-0.9-0.6-0.1-0.2-0.4-0.3-0.6-0.3l-0.3-0.3z m4.1 2.8c0 0.8 0.5 0.8 0.8 1.1 2.1 1.5 4.3 3 6.4 4.6 9.4 6.8 18.8 13.7 28.2 20.5 0.4 0.3 1 1 1.5 0.1 0.4-0.7 0.1-1.1-0.5-1.6-5.4-3.6-10.7-7.3-16-11-5.4-3.7-10.9-7.5-16.3-11.2-1.4-0.9-2.6-1.9-4.1-2.5z m-0.6-0.5c-0.1 0-0.2-0.1-0.3-0.1-0.1 0-0.3 0-0.2 0.2 0.1 0.1 0.2 0.2 0.3 0.2 0.2 0 0.3-0.1 0.2-0.3zM501 135v6.7c-1.3 0.5-2.6 1.1-3.9 1.5-6.5 2-12.7 0.6-18.6-2.3-8.5-4.1-15.1-10.5-20.6-18.1-4.3-5.9-7.8-12.3-10.7-19.1-0.5-1.2-0.2-1.6 0.9-2 6.5-2 13.1-1.7 19.5 0.3 12 3.7 21.9 10.2 28.4 21.2 1.8 3 3.1 6.2 4.1 9.6 0.3 0.7 0.4 1.5 0.9 2.2z m-42.1-24.6s0-0.1-0.1-0.1h-0.1c0.1 0 0.2 0.1 0.2 0.1l0.3 0.3 0.3 0.3c0.2 0.5 0.7 0.6 1.2 0.6 0 0.6 0.5 0.6 0.9 0.6 0 0.4 0.1 0.7 0.5 0.8 0.2 0 0.3-0.1 0.3-0.3-0.1-0.4-0.4-0.5-0.8-0.5-0.2-0.4-0.5-0.6-0.9-0.6-0.2-0.5-0.7-0.6-1.2-0.6l-0.3-0.3-0.3-0.3z m5.2 3.4c-0.1 0.1-0.2 0.2-0.3 0.4 0.6 0.5 1.2 1 1.8 1.4 10.8 7.9 21.7 15.7 32.5 23.5 0.5 0.4 1 1.2 1.7 0.3 0.7-0.9-0.1-1.3-0.7-1.7-3.1-2.1-6.1-4.2-9.2-6.3l-16.2-11.1c-3.2-2.2-6.4-4.4-9.6-6.5z m-0.7-0.3c0-0.1-0.1-0.2-0.1-0.2-0.1 0-0.2 0-0.2 0.1 0.1 0.1 0.1 0.2 0.2 0.3-0.1-0.1 0-0.2 0.1-0.2z" p-id="13756" fill="#0ff7ab"></path><path d="M510.5 859c-0.9-3.9 1.2-5.8 4.2-7.9 9.6-6.6 18.9-13.5 28.3-20.3 6.9-5 13.8-9.9 20.7-14.8 0.3-0.2 0.7-0.5 0.7-0.9 0.3 0 0.6 0.1 0.8-0.3 0-0.1-0.1-0.2-0.1-0.2-0.4-0.1-0.5 0.2-0.7 0.5-2.3 1-4.2 2.7-6.3 4.1-5.2 3.5-10.3 7.1-15.4 10.7-9.8 6.8-19.7 13.7-29.5 20.5-0.8 0.6-1.7 1.1-2.7 1.7-0.3-4.7 0.2-9.2-0.3-13.7 0.6 0.2 0.6-0.4 0.7-0.7 6.8-16.4 18.9-27.6 34.7-35.2 10.2-4.9 20.8-7.6 32.2-6.8 3.5 0.3 6.9 0.9 10.2 2.1 0.9 0.3 1.2 0.7 0.8 1.6-5.4 13.4-12.5 25.7-21.9 36.7-7.2 8.4-15.5 15.4-25.5 20.3-6.6 3.2-13.6 5.1-21 4.7-3.5-0.1-6.7-1-9.9-2.1z m58.5-47c0.5-0.1 0.9-0.2 1-0.9-0.6 0.2-1 0.3-1 0.9-0.3 0-0.5 0.1-0.6 0.3-0.7 0.2-1.4 0.6-1.8 1.2-0.4 0-0.7 0.1-0.8 0.5 0 0.2 0.1 0.3 0.3 0.3 0.4-0.1 0.5-0.4 0.5-0.8 0.9 0 1.5-0.4 1.8-1.2 0.2 0 0.4 0 0.6-0.3z" p-id="13757" fill="#0ff7ab"></path><path d="M509.9 760.5c-0.2-4.7-0.1-4.6 3.7-7.3 8.3-5.9 16.6-11.9 24.9-17.9 5.2-3.8 10.5-7.5 15.7-11.3 0.2-0.2 0.5-0.3 0.5-1-1.7 1.1-3.3 2.1-4.9 3.2l-16.5 11.4c-7.4 5.1-14.8 10.3-22.2 15.4-0.3 0.2-0.6 0.5-0.9 0.4-0.4-0.2-0.2-0.6-0.2-1v-11.5c2.3-4.9 4.9-9.7 8.4-14 7.5-9.3 17.1-15.5 28.1-19.9 7.3-2.9 14.9-4.4 22.8-4 3.5 0.2 6.9 0.8 10.2 1.9 1 0.3 1.2 0.7 0.8 1.7-5 12.3-11.6 23.7-20.4 33.8-6.4 7.2-13.7 13.3-22.4 17.5-5.2 2.6-10.7 4.2-16.6 4.3-3.9 0.4-7.5-0.4-11-1.7z m52.4-42.5c-0.3 0-0.5 0.1-0.6 0.3l-0.1 0.1 0.1-0.1c0.3 0 0.5 0 0.6-0.3h0.1v-0.1l-0.1 0.1z m-7.1 5c1-0.3 1.9-0.8 2.4-1.7-1 0.3-1.9 0.7-2.4 1.7z m6-4.2c-0.9 0.2-1.4 0.6-1.7 1.2 0.6-0.2 1.2-0.4 1.7-1.2z m-2.3 1.8c-0.1-0.1-0.2-0.3-0.3-0.3-0.2 0.1-0.4 0.2-0.4 0.3-0.1 0.2 0 0.4 0.2 0.4 0.2-0.1 0.4-0.3 0.5-0.4zM509 598.6c-0.5-2.8 0.3-4.8 2.9-6.5C525 582.9 538 573.4 551 564c0.7-0.5 1.5-0.7 1.7-1.8-14.5 9.9-28.9 19.9-43.7 30v-12.1c1.9-3.7 3.7-7.4 6.2-10.7 10.2-13.1 23.7-20.8 40-23.3 5.8-0.9 11.6-0.5 17.2 1.3 1.2 0.4 1.4 0.8 0.9 2-5.8 14-13.5 26.6-24.7 36.9-6.8 6.2-14.5 11.1-23.7 13.2-5.4 1.3-10.7 1-15.9-0.9z m47.5-38.8c-0.9 0.1-1.5 0.6-1.9 1.3 0.8-0.3 1.5-0.6 1.9-1.3h0.1v-0.1l-0.1 0.1z m-2.8 2.3c0.1-0.1 0.3-0.2 0.3-0.4 0.1-0.2-0.1-0.4-0.3-0.3-0.1 0.1-0.3 0.3-0.3 0.4-0.1 0.2 0 0.3 0.3 0.3z m3.7-3.1l0.1 0.1v-0.2c-0.1 0-0.1 0.1-0.1 0.1z" p-id="13758" fill="#0ff7ab"></path><path d="M509.5 674.1c-0.1-1.4 0.2-2.8-0.1-4.2-0.1-0.6 0.3-0.8 0.6-1 10.4-7.5 20.7-14.9 31.1-22.4 3.3-2.4 6.7-4.8 10-7.3 0.2-0.1 0.4-0.3 0.4-0.7-1.3 0.3-2.2 1.3-3.2 1.9-6 4.1-11.9 8.2-17.9 12.3-6.6 4.5-13.2 9.1-19.7 13.6-0.4 0.3-0.9 0.7-1.2 0.6-0.6-0.2-0.3-0.9-0.3-1.3v-11.2c0.4-0.1 0.5-0.5 0.6-0.8 8-16.3 21.4-25.7 38.3-30.8 7.9-2.4 16-2.7 24-0.1 1.2 0.4 1.5 0.7 1 2-5.3 13-12.5 24.9-22.5 34.9-6.4 6.4-13.8 11.6-22.5 14.4-6.1 2-12.3 2.4-18.6 0.1z m47-39.1c0.3 0 0.5-0.1 0.6-0.3 0 0 0.1 0 0.1-0.1v-0.1l-0.1 0.1c-0.2 0-0.4 0.1-0.6 0.4l-0.3 0.3c-1.3 0.4-2.3 1.2-3.1 2.2 1.2-0.6 2.3-1.2 3.1-2.2l0.3-0.3z m-4 3c0-0.1-0.1-0.2-0.1-0.2-0.1 0-0.2 0-0.2 0.1s0.1 0.2 0.1 0.3l0.2-0.2z" p-id="13759" fill="#0ff7ab"></path><path d="M508.6 515.5c0-3.4 0.2-6.7-0.2-10.1 0.6 0.1 0.6-0.5 0.7-0.8 4.6-14.8 14.3-25.1 28-31.9 7.6-3.8 15.5-6 24-5.8 3.3 0.1 6.5 0.6 9.6 1.7 0.7 0.3 1.1 0.5 0.7 1.4-6.7 16-15.7 30.3-30.2 40.4-5.4 3.8-11.2 6.6-17.8 7.5-5.2 0.8-10.2 0.2-14.8-2.4z m47.9-36.1c0.3 0 0.6-0.1 0.7-0.4l-0.1-0.1c-0.3 0-0.4 0.2-0.6 0.5l-0.3 0.3c-0.8 0.1-1.5 0.6-1.9 1.4 0.7-0.3 1.5-0.6 1.9-1.4l0.3-0.3z m-4.7 3.4c-0.9 0-1.3 0.5-1.7 0.8-4.1 2.8-8.3 5.7-12.4 8.6l-27.6 18.9c-0.7 0.5-1.3 0.9-0.7 1.8 0.7 1.1 1.3 0 1.7-0.3 12.3-8.8 24.6-17.7 36.8-26.5 1.2-1 2.7-1.8 3.9-3.3z m1.6-1.5c-0.1 0.2-0.3 0.3-0.4 0.5-0.1 0.3 0.2 0.3 0.4 0.2 0.1-0.1 0.2-0.3 0.3-0.4 0-0.1-0.2-0.2-0.3-0.3z m-0.9 1.2c0-0.1-0.1-0.2-0.1-0.2-0.1 0-0.2 0.1-0.2 0.1 0.1 0.1 0.1 0.2 0.2 0.3 0-0.1 0-0.2 0.1-0.2z" p-id="13760" fill="#0ff7ab"></path><path d="M508.1 441.6v-3.4c0.6-2.1 1-4.3 1.7-6.4 4.6-14.7 14.8-24.1 28.6-30 6.2-2.7 12.7-4 19.5-3.6 2.6 0.2 5.1 0.6 7.6 1.5 0.8 0.3 1.1 0.5 0.7 1.4-6 14.5-14.3 27.4-27.4 36.6-4.7 3.3-9.9 5.8-15.7 6.7-5 0.7-9.9 0.2-14.3-2.5-0.3-0.2-0.5-0.3-0.7-0.3z m44.2-31.9c-0.3 0-0.5 0.1-0.6 0.3-0.7 0.2-1.4 0.6-1.8 1.2-0.7 0.2-1.4 0.5-1.6 1.4 0.5-0.5 1.5-0.4 1.6-1.4 0.9 0 1.5-0.4 1.8-1.2 0.2 0 0.5-0.1 0.6-0.3l0.3-0.3c0.3 0 0.6-0.1 0.7-0.4l-0.1-0.1c-0.4 0-0.5 0.2-0.6 0.5l-0.3 0.3z m-4.6 2.8c-2.2 1.5-4.2 2.7-6.1 4-5.6 3.8-11.1 7.7-16.6 11.5-4.8 3.3-9.7 6.7-14.5 10-0.3 0.2-0.9 0.3-0.8 0.9 0.1 0.3 0.2 0.8 0.5 0.9 0.4 0.3 0.9-0.1 1.2-0.4 3.5-2.6 7.1-5.1 10.6-7.7 8.1-5.9 16.2-11.7 24.3-17.6 0.5-0.2 1.2-0.4 1.4-1.6z" p-id="13761" fill="#0ff7ab"></path><path d="M507.1 314.8c0.6-2.1 0.3-4.2 0.2-6.2 0-0.3-0.3-0.7 0.1-1 0.8-1.2 0.9-2.6 1.3-3.9 4-11.9 11.9-20.5 22.9-26.5 7.7-4.2 15.8-6.7 24.7-6.3 2.6 0.1 5.1 0.6 7.6 1.4 1 0.3 1.3 0.7 0.8 1.7-4.3 10.3-9.8 19.8-17.5 27.9-5.8 6.2-12.5 11.2-20.6 13.9-6.3 2.1-12.6 2.3-18.6-0.9-0.3-0.2-0.6-0.3-0.9-0.1z m44.9-33.1c-0.3 0-0.5 0.1-0.6 0.3-1.1 0.4-1.9 1-2.6 1.9 0.9-0.5 2.1-0.8 2.6-1.9 0.2 0 0.5 0 0.6-0.3h0.1v-0.1l-0.1 0.1z m-4.6 3.4c-0.1-0.1-0.2-0.2-0.3-0.4-4.9 3.4-9.9 6.7-14.8 10.1-5.5 3.8-11 7.6-16.6 11.3-2.3 1.6-4.5 3.2-6.8 4.7-0.8 0.5-0.6 1.1-0.2 1.7 0.4 0.7 0.9 0 1.2-0.2 0.7-0.4 1.3-1 1.9-1.5 10.6-7.7 21.3-15.3 31.9-23 1.3-0.8 2.5-1.7 3.7-2.7z m0.9-0.6c-0.1-0.1-0.1-0.2-0.2-0.2s-0.2 0-0.2 0.1c-0.1 0.2 0 0.3 0.2 0.3 0-0.1 0.1-0.2 0.2-0.2zM507.8 374v-8.3c1.3-4.1 2.8-8.1 5-11.8 6.1-10.1 15.1-16.7 25.9-20.9 7.5-2.9 15.2-4.1 23.1-2.2 4.4 1.1 3.6 0.7 2.1 4.1-4.5 10.5-10.4 20.1-18.6 28.1-6.1 6-13.1 10.7-21.6 12.7-5.6 1.4-10.9 0.9-15.9-1.7z m45.1-33.8c-0.3 0-0.5 0.1-0.6 0.3l-0.3 0.3c-0.8 0.1-1.5 0.6-1.9 1.3 0.8-0.2 1.5-0.6 1.9-1.3l0.3-0.3c0.3 0.1 0.5 0 0.6-0.3 0 0 0.1 0 0.1-0.1v-0.1c0 0.2-0.1 0.2-0.1 0.2z m-3.4 2.7c-0.5-0.4-0.8-0.1-1.1 0.1-1.5 1-2.9 2-4.4 3-5.7 3.9-11.4 7.8-17 11.7-3.2 2.2-6.4 4.3-9.6 6.5-2.8 1.9-5.6 3.9-8.5 5.8-0.8 0.5-0.6 1.1-0.3 1.7 0.4 0.7 0.9 0.1 1.2-0.2 1.5-1 2.9-2 4.3-3.1 8.6-6.3 17.2-12.5 25.9-18.8 3.2-2.2 6.3-4.4 9.5-6.7zM507.1 245.5c0.1-2.3 0-4.6-0.2-7 0.6 0.1 0.5-0.4 0.6-0.7 5.9-19.8 20.1-29.9 39.7-33.3 4.3-0.7 8.7-0.3 12.9 1.1 1 0.3 1.4 0.7 0.9 1.8-5 11.9-11.7 22.7-21.7 31.1-5 4.2-10.6 7.5-17.1 8.9-5.4 1.2-10.4 0.7-15.1-1.9z m40.7-30.2c0.3 0 0.5-0.1 0.6-0.3 0.5-0.1 0.9-0.2 1-0.9-0.5 0.1-0.9 0.3-1 0.9-0.3 0-0.5 0.1-0.6 0.3-0.1 0-0.1 0.1-0.1 0.1l0.1-0.1z m-1.9 1.2c-0.7 0.2-1.4 0.5-1.9 1.6 1-0.5 1.8-0.6 1.9-1.6 0.5 0 1 0 1.1-0.7-0.5 0.1-0.9 0.3-1.1 0.7z m-2.1 1.4c-0.5 0.3-0.7 0.4-0.9 0.6-3.8 2.6-7.6 5.2-11.5 7.8-7.1 4.8-14.2 9.7-21.3 14.5-0.6 0.4-1.2 0.9-1.8 1.4-0.5 0.5-0.4 1.1 0 1.5 0.4 0.5 0.8 0 1.1-0.3 2.5-1.8 4.9-3.6 7.4-5.4 8.5-6.2 17-12.3 25.5-18.5 0.5-0.3 1.3-0.5 1.5-1.6zM506.6 182.6v-4.3c0.6-2.2 1.2-4.4 1.9-6.5 4-11.3 11.7-19.3 22.2-24.7 6.9-3.6 14.2-5.8 22.1-5.4 2.5 0.1 5 0.6 7.4 1.4 0.7 0.2 1.1 0.5 0.7 1.4-5.7 13.6-13.3 25.6-25.6 34.2-5.3 3.7-11.1 6.4-17.8 6.6-3.6 0.1-6.9-0.6-10-2.3-0.3-0.2-0.6-0.5-0.9-0.4z m41.1-29.6c-0.1-0.1-0.1-0.2-0.2-0.3-0.4 0.3-0.9 0.5-1.3 0.8-9.3 6.4-18.6 12.7-27.9 19.1-3.2 2.2-6.4 4.4-9.6 6.5-0.8 0.5-0.8 1.2-0.3 1.8 0.5 0.7 0.9-0.1 1.2-0.3 1.1-0.7 2.2-1.5 3.2-2.2 9-6.6 18.1-13.1 27.1-19.7 2.5-1.9 5.1-3.8 7.8-5.7z m0.7-0.8c0-0.1 0-0.1 0 0l-0.1-0.1v0.2l0.1-0.1zM506.3 119v-3.5c0.5-1.9 0.9-3.8 1.5-5.6 4.1-12.6 12.8-20.9 24.6-26.1 5.4-2.4 11-3.8 16.9-3.7 2.7 0.1 5.3 0.5 7.9 1.3 0.8 0.2 1.2 0.6 0.8 1.5-5.3 12.6-12.5 23.9-23.8 32.1-4.4 3.2-9.2 5.6-14.7 6.4-4.7 0.7-9.1 0-13.2-2.4z m40.2-29.2h-0.1v0.1c0.1 0 0.1 0 0.1-0.1h0.1v-0.1s0 0.1-0.1 0.1z m-2.7 1.8c0.8 0 1.3-0.4 1.9-1.3-0.9 0.5-1.5 0.7-1.9 1.3-0.4 0-0.7 0.1-0.8 0.5 0 0.2 0.1 0.3 0.3 0.3 0.4-0.1 0.5-0.4 0.5-0.8z m-0.9 1.1c-0.9-0.2-1.2 0.1-1.5 0.3-1.6 1.1-3.2 2.3-4.8 3.4-9.3 6.4-18.6 12.7-28 19-1.1 0.7-1.3 1.4-0.3 2.4 11.4-8.2 22.8-16.5 34.6-25.1z" p-id="13762" fill="#0ff7ab"></path><path d="M463.9 50.1c3.7 2.5 7.4 5 11 7.4L492 69.2c2.6 1.8 5.2 3.7 7.8 5.4 0.9 0.6 0.7 1.2 0.3 1.8-0.6 0.8-0.9-0.1-1.2-0.4-11.5-8.3-23-16.6-34.5-25-0.2-0.2-0.5-0.3-0.5-0.9zM463.1 50.1c-0.6-0.4-1.1-0.8-1.7-1.2 0.9-0.1 1.4 0.4 1.9 0.8 0 0.1-0.1 0.3-0.2 0.4zM441.2 773.7c2.9 2 5.7 3.9 8.4 5.8 9 6.2 17.9 12.5 26.9 18.7 6.3 4.3 12.6 8.7 18.9 13 0.2 0.1 0.4 0.3 0.6 0.4 0.6 0.4 0.5 0.9 0.3 1.4-0.4 0.8-0.9 0.3-1.2 0-2.9-2.1-5.8-4.1-8.7-6.2-6.1-4.4-12.1-8.8-18.2-13.1-8.9-6.4-17.7-12.7-26.6-19.1-0.3-0.1-0.5-0.2-0.4-0.9zM438.9 772.3c-1.1-0.1-1.8-0.7-2.4-1.5 1 0.2 1.7 0.8 2.4 1.5zM438.9 772.3c0.7 0.2 1.3 0.6 1.6 1.3-0.6-0.3-1.5-0.3-1.6-1.3zM436.2 770.5c-0.3 0-0.6-0.1-0.7-0.4l0.1-0.1c0.3-0.1 0.4 0.2 0.6 0.5zM436.5 770.8l-0.3-0.3 0.3 0.3zM448 679.8c0.9 0.6 1.9 1.2 2.8 1.8 7.4 5.1 14.8 10.2 22.2 15.4 7.8 5.4 15.6 10.8 23.5 16.2 0.7 0.5 1 1 0.5 1.7-0.6 0.8-1.1 0-1.5-0.3-6.2-4.4-12.4-8.9-18.7-13.3-6.2-4.5-12.4-8.9-18.6-13.4-3.4-2.4-6.8-4.8-10.2-7.3-0.1-0.1-0.2-0.3-0.4-0.4 0.2-0.1 0.3-0.2 0.4-0.4zM444.1 677.4c1.3 0.3 2.3 1.3 3.2 2.2-1.3-0.4-2.4-1.2-3.2-2.2zM443.1 676.8c-0.7 0-1-0.5-1.4-1 0.7 0.1 1.3 0.2 1.4 1 0.1 0 0 0 0 0zM443.8 677.1c-0.3 0-0.5-0.1-0.6-0.3 0.2 0 0.4 0 0.6 0.3zM443.8 677.1l0.3 0.3-0.3-0.3zM452.7 520.8c3.5 2.4 6.8 4.7 10.2 7l34.5 23.7c0.5 0.3 1.1 0.6 0.8 1.4-0.2 0.7-0.3 1.2-1.3 0.5-14.5-10.5-29.1-21-43.7-31.5-0.2-0.2-0.6-0.3-0.5-1.1zM449.1 518.6c0.9 0.2 1.4 0.6 1.7 1.2-0.6-0.1-1.2-0.3-1.7-1.2zM452.3 520.7c-0.2 0.1-0.4 0.2-0.5 0.1-0.2-0.1-0.4-0.3-0.3-0.6 0-0.1 0.3-0.1 0.4 0 0.1 0.1 0.2 0.3 0.4 0.5zM448.1 517.8s-0.1 0 0 0c-0.1 0-0.1 0-0.2-0.1 0.1 0 0.1 0 0.2 0.1 0-0.1 0 0 0 0z" p-id="13763" fill="#0ff7ab"></path><path d="M450.7 594.9c0.7 0.2 1.3 0.6 1.6 1.3-0.6-0.2-1.4-0.3-1.6-1.3zM448.3 593.4c-0.5 0-0.8-0.3-1.1-0.9 0.6 0.2 1 0.3 1.1 0.9zM449.8 594.3c0.4 0 0.7 0.2 0.9 0.6-0.4 0-0.9 0-0.9-0.6zM449.8 594.3c-0.3 0-0.5-0.1-0.6-0.3 0.3 0 0.5 0.1 0.6 0.3zM448.3 593.4c0.3 0 0.5 0.1 0.6 0.3-0.2 0-0.5 0-0.6-0.3zM449.2 594l-0.3-0.3 0.3 0.3zM451 437.9c0.7 0.1 1.1 0.6 1.6 1.1-0.7-0.1-1.3-0.4-1.6-1.1zM450.4 437.6c0.3 0 0.5 0.1 0.6 0.3-0.2 0-0.4-0.1-0.6-0.3zM450.4 437.6l-0.1-0.1h0.1v0.1z" p-id="13764" fill="#0ff7ab"></path><path d="M459.2 302.6c3.2 1.7 6 4 9 6 5.1 3.4 10.1 6.9 15.2 10.4 4.7 3.2 9.4 6.4 14 9.7 0.4 0.3 0.9 0.5 0.8 1.1-0.2 1-0.6 1.2-1.5 0.6-2.3-1.7-4.5-3.3-6.8-5-7.1-5.1-14.2-10.3-21.2-15.4-3-2.2-6-4.3-9.1-6.5-0.2-0.2-0.4-0.4-0.4-0.9zM457.1 301.1c-0.8 0-1.3-0.4-1.9-1.2 0.9 0.4 1.5 0.6 1.9 1.2zM457.1 301.1c0.4 0 0.7 0.1 0.8 0.5 0 0.2-0.1 0.3-0.3 0.3-0.4-0.1-0.5-0.4-0.5-0.8zM459.2 302.7c-0.3 0-0.6 0.1-0.8-0.3 0-0.1 0.1-0.2 0.1-0.2 0.4-0.1 0.6 0.2 0.7 0.5 0-0.1 0 0 0 0zM454.8 299.5h-0.1v-0.2c0 0.1 0 0.1 0.1 0.2 0-0.1 0 0 0 0zM458.6 370.6c1.4 0.2 2.4 1.2 3.5 2l21 14.4 14.4 9.9c0.8 0.6 0.8 1.1 0.4 1.8-0.5 0.9-1 0-1.3-0.2-9.1-6.5-18.1-13.1-27.1-19.7-3.3-2.4-6.6-4.8-9.9-7.1-0.3-0.4-0.8-0.6-1-1.1zM455.3 368.1c1 0.1 1.5 0.8 2.2 1.3-1 0.1-1.7-0.5-2.2-1.3z" p-id="13765" fill="#0ff7ab"></path><path d="M458.6 370.6c-0.2 0-0.5 0-0.5-0.4l0.1-0.1c0.4 0 0.4 0.2 0.4 0.5zM455 367.8c-0.3 0-0.5-0.1-0.6-0.3 0.2 0 0.4 0.1 0.6 0.3zM455 367.8l0.3 0.3-0.3-0.3zM454.4 367.5l-0.1-0.1h0.1c-0.1 0.1 0 0.1 0 0.1zM460.3 243.3c0.6 0 1 0.4 1.4 0.7 10.8 7.4 21.7 14.8 32.5 22.3 1.6 1.1 3.1 2.2 4.7 3.3 0.7 0.5 0.8 1 0.4 1.7-0.5 0.9-1 0-1.3-0.2-12.4-9-24.9-18-37.3-26.9-0.2-0.3-0.5-0.4-0.4-0.9zM459.6 243c-0.6-0.2-1.2-0.4-1.7-1.2 1 0.1 1.4 0.7 1.7 1.2zM457.7 241.6c-0.6 0.1-0.8-0.2-1-0.6 0.4-0.1 0.7 0.1 1 0.6zM463 176c1.5 0.6 2.7 1.6 4 2.5 5.5 3.7 10.9 7.4 16.3 11.2 5.3 3.7 10.7 7.4 16 11 0.7 0.5 1 0.8 0.5 1.6-0.5 0.9-1.1 0.2-1.5-0.1-9.4-6.8-18.8-13.6-28.2-20.5-2.1-1.5-4.3-3-6.4-4.6-0.2-0.3-0.8-0.4-0.7-1.1zM462.4 175.5c0.1 0.2-0.1 0.3-0.2 0.3s-0.3-0.1-0.3-0.2c-0.1-0.2 0.1-0.2 0.2-0.2s0.2 0.1 0.3 0.1zM459.8 173.8c0.4 0 0.7 0.2 0.9 0.6-0.4 0-0.8 0-0.9-0.6zM460.7 174.4c0.3 0 0.6 0 0.7 0.4 0 0-0.1 0.2-0.2 0.2-0.4 0-0.4-0.3-0.5-0.6zM459.2 173.5c0.3 0 0.5 0.1 0.6 0.3-0.2 0-0.5-0.1-0.6-0.3zM458.9 173.2l0.3 0.3-0.3-0.3zM458.9 173.2l-0.1-0.1h0.1v0.1zM464.1 113.8c3.2 2.2 6.4 4.3 9.6 6.5l16.2 11.1c3.1 2.1 6.1 4.2 9.2 6.3 0.7 0.4 1.4 0.9 0.7 1.7-0.7 0.9-1.2 0-1.7-0.3-10.8-7.8-21.7-15.7-32.5-23.5-0.6-0.5-1.2-1-1.8-1.4 0.1-0.2 0.2-0.3 0.3-0.4zM461.6 112.2c0.4 0 0.7 0.1 0.8 0.5 0 0.2-0.1 0.3-0.3 0.3-0.3-0.1-0.4-0.4-0.5-0.8zM459.5 111c0.5 0 1 0.1 1.2 0.6-0.5 0.1-0.9 0-1.2-0.6zM461.6 112.3c-0.4 0-0.9 0-0.9-0.6 0.5-0.1 0.8 0.1 0.9 0.6 0-0.1 0 0 0 0zM463.4 113.5l-0.2 0.2c-0.1-0.1-0.1-0.2-0.2-0.3 0.1 0 0.2-0.1 0.2-0.1 0.1 0 0.1 0.1 0.2 0.2zM459.5 111l-0.3-0.3 0.3 0.3zM459.2 110.7l-0.3-0.3 0.3 0.3zM458.9 110.4l-0.1-0.1h0.1v0.1z" p-id="13766" fill="#0ff7ab"></path><path d="M568.4 812.3c-0.3 0.8-0.9 1.2-1.8 1.2 0.4-0.6 1-1 1.8-1.2zM569 812c0-0.6 0.5-0.7 1-0.9-0.1 0.7-0.5 0.9-1 0.9zM566.6 813.5c0 0.4-0.1 0.7-0.5 0.8-0.2 0-0.3-0.1-0.3-0.3 0.1-0.4 0.4-0.4 0.8-0.5-0.1 0 0 0 0 0zM564.4 815c0.1-0.3 0.3-0.5 0.7-0.5 0.1 0 0.1 0.2 0.1 0.2-0.2 0.5-0.5 0.3-0.8 0.3 0 0.1 0 0 0 0zM569 812c-0.1 0.2-0.4 0.3-0.6 0.3 0.1-0.2 0.3-0.3 0.6-0.3zM555.2 723c0.5-1 1.4-1.4 2.4-1.7-0.5 0.9-1.4 1.3-2.4 1.7zM561.2 718.8c-0.5 0.8-1.1 1.1-1.7 1.2 0.3-0.7 0.8-1 1.7-1.2zM558.9 720.6c-0.2 0.1-0.3 0.3-0.5 0.3-0.3 0.1-0.3-0.2-0.2-0.4 0.1-0.1 0.3-0.2 0.4-0.3 0.1 0.1 0.2 0.2 0.3 0.4zM561.7 718.3c0.1-0.2 0.4-0.3 0.6-0.3-0.1 0.3-0.3 0.3-0.6 0.3zM562.3 718l0.1-0.1v0.1h-0.1zM561.7 718.3l-0.1 0.1s0.1 0 0.1-0.1zM556.5 559.8c-0.4 0.8-1.2 1.1-1.9 1.3 0.5-0.7 1.1-1.2 1.9-1.3zM553.7 562.1c-0.3 0-0.4-0.1-0.4-0.2 0.1-0.2 0.2-0.3 0.3-0.4 0.2-0.1 0.4 0 0.3 0.3 0.1 0.1-0.1 0.2-0.2 0.3zM557.4 559h0.1v0.2c0-0.1-0.1-0.1-0.1-0.2zM556.5 559.8l0.1-0.1v0.1c0-0.1 0-0.1-0.1 0zM556.2 635.3c-0.8 1.1-2 1.7-3.1 2.2 0.8-1.1 1.8-1.9 3.1-2.2zM552.5 638c-0.1 0-0.1 0.1-0.2 0.1 0-0.1-0.1-0.2-0.1-0.3 0.1 0 0.2-0.1 0.2-0.1 0 0.1 0.1 0.2 0.1 0.3zM557.2 634.7c-0.1 0.2-0.4 0.3-0.6 0.3 0.1-0.3 0.3-0.4 0.6-0.3zM557.1 634.6l0.1-0.1v0.1h-0.1c0.1 0.1 0 0 0 0zM556.2 635.3l0.3-0.3-0.3 0.3z" p-id="13767" fill="#0ff7ab"></path><path d="M551.8 482.8c-1.2 1.5-2.7 2.2-3.9 3.2-12.2 8.9-24.5 17.7-36.8 26.5-0.4 0.3-1 1.4-1.7 0.3-0.6-0.8 0-1.3 0.7-1.8l27.6-18.9c4.1-2.8 8.3-5.7 12.4-8.6 0.4-0.2 0.8-0.6 1.7-0.7zM556.2 479.7c-0.4 0.8-1.2 1-1.9 1.4 0.5-0.8 1.1-1.2 1.9-1.4zM553.4 481.3c0.1 0.1 0.3 0.2 0.3 0.3-0.1 0.2-0.2 0.4-0.3 0.4-0.2 0.1-0.4 0.1-0.4-0.2 0-0.2 0.2-0.3 0.4-0.5zM552.5 482.5l-0.2 0.2c-0.1-0.1-0.1-0.2-0.2-0.3 0.1 0 0.2-0.1 0.2-0.1 0.1 0 0.2 0.1 0.2 0.2zM556.5 479.4c0.1-0.3 0.3-0.5 0.6-0.5l0.1 0.1c-0.1 0.4-0.3 0.4-0.7 0.4zM556.2 479.7l0.3-0.3-0.3 0.3zM547.7 412.5c-0.2 1.2-1 1.4-1.4 1.7-8.1 5.9-16.2 11.7-24.3 17.6-3.5 2.6-7.1 5.1-10.6 7.7-0.4 0.3-0.8 0.6-1.2 0.4-0.2-0.1-0.4-0.6-0.5-0.9-0.1-0.6 0.5-0.7 0.8-0.9 4.8-3.4 9.7-6.7 14.5-10 5.5-3.8 11.1-7.7 16.6-11.5 2-1.3 3.9-2.6 6.1-4.1zM549.9 411.2c-0.1 1-1.1 0.9-1.6 1.4 0.2-0.9 0.8-1.2 1.6-1.4zM551.7 410c-0.3 0.8-0.9 1.2-1.8 1.2 0.4-0.6 1-1 1.8-1.2zM552.6 409.4c0.1-0.3 0.3-0.5 0.6-0.5l0.1 0.1c-0.1 0.3-0.4 0.4-0.7 0.4zM551.7 410c0.1-0.2 0.4-0.3 0.6-0.3-0.1 0.2-0.4 0.3-0.6 0.3zM552.3 409.7l0.3-0.3-0.3 0.3zM547.4 285.1c-1.2 0.9-2.4 1.9-3.6 2.8-10.6 7.7-21.3 15.3-31.9 23-0.7 0.5-1.2 1-1.9 1.5-0.4 0.2-0.8 0.9-1.2 0.2-0.3-0.5-0.6-1.1 0.2-1.7 2.3-1.5 4.6-3.1 6.8-4.7 5.5-3.8 11-7.6 16.6-11.3 4.9-3.4 9.9-6.7 14.8-10.1 0 0.1 0.1 0.2 0.2 0.3zM551.4 282c-0.5 1.1-1.6 1.4-2.6 1.9 0.7-0.9 1.5-1.5 2.6-1.9zM548.3 284.5c-0.1 0.1-0.1 0.1-0.2 0.1-0.2 0-0.2-0.1-0.2-0.3 0-0.1 0.1-0.1 0.2-0.1 0.1 0.1 0.1 0.2 0.2 0.3zM552 281.7c-0.1 0.2-0.4 0.3-0.6 0.3 0.1-0.2 0.3-0.3 0.6-0.3zM552 281.7l0.1-0.1v0.1h-0.1zM549.5 342.9c-3.2 2.3-6.3 4.5-9.4 6.8-8.6 6.3-17.2 12.5-25.9 18.8-1.4 1-2.8 2.1-4.3 3.1-0.3 0.2-0.8 0.9-1.2 0.2-0.3-0.6-0.5-1.1 0.3-1.7 2.8-1.9 5.6-3.9 8.5-5.8 3.2-2.2 6.4-4.3 9.6-6.5 5.7-3.9 11.4-7.8 17-11.7 1.5-1 2.9-2 4.4-3 0.2-0.3 0.5-0.6 1-0.2zM552 340.9c-0.4 0.8-1.2 1.1-1.9 1.3 0.4-0.7 1-1.2 1.9-1.3zM552.9 340.2c-0.1 0.2-0.4 0.3-0.6 0.3 0.1-0.2 0.4-0.3 0.6-0.3zM552 340.9l0.3-0.3-0.3 0.3zM552.9 340.2l0.1-0.1v0.1h-0.1zM543.8 217.9c-0.2 1.1-0.9 1.3-1.4 1.7-8.5 6.2-17 12.3-25.5 18.5-2.5 1.8-4.9 3.6-7.4 5.4-0.3 0.2-0.7 0.8-1.1 0.3-0.4-0.4-0.5-1.1 0-1.5 0.5-0.5 1.2-1 1.8-1.4 7.1-4.8 14.2-9.7 21.3-14.5 3.8-2.6 7.6-5.2 11.5-7.8 0.1-0.2 0.3-0.4 0.8-0.7zM545.9 216.6c-0.1 0.9-0.9 1.1-1.9 1.6 0.5-1.1 1.2-1.4 1.9-1.6zM545.9 216.5c0.2-0.4 0.6-0.7 1.1-0.7-0.1 0.7-0.6 0.8-1.1 0.7 0 0.1 0 0 0 0zM548.4 215c0-0.6 0.5-0.7 1-0.9-0.1 0.7-0.5 0.9-1 0.9zM547.7 215.3c0.1-0.2 0.4-0.3 0.6-0.3-0.1 0.3-0.3 0.3-0.6 0.3zM547.8 215.3l-0.1 0.1 0.1-0.1c-0.1 0 0 0 0 0zM547.7 153c-2.6 1.9-5.3 3.8-7.9 5.7-9 6.6-18.1 13.1-27.1 19.7-1.1 0.8-2.1 1.6-3.2 2.2-0.3 0.2-0.7 1-1.2 0.3-0.4-0.6-0.5-1.3 0.3-1.8 3.2-2.2 6.4-4.4 9.6-6.5 9.3-6.4 18.6-12.7 27.9-19.1 0.4-0.3 0.9-0.6 1.3-0.8 0.1 0 0.2 0.1 0.3 0.3zM548.4 152.2h-0.1v-0.2c0.1 0 0.1 0 0.1 0.2 0-0.1 0-0.1 0 0zM542.9 92.7c-11.7 8.5-23.2 16.8-34.6 25.1-1-1.1-0.8-1.7 0.3-2.4 9.4-6.3 18.7-12.7 28-19 1.6-1.1 3.2-2.3 4.8-3.4 0.3-0.2 0.6-0.4 1.5-0.3zM543.8 91.6c0.4-0.6 1-0.8 1.9-1.3-0.6 1-1.1 1.4-1.9 1.3zM543.8 91.6c0 0.4-0.1 0.7-0.5 0.8-0.2 0-0.3-0.1-0.3-0.3 0.1-0.4 0.4-0.4 0.8-0.5zM546.5 89.8l-0.1 0.1v-0.1h0.1zM546.5 89.8l0.1-0.1v0.1h-0.1z" p-id="13768" fill="#0ff7ab"></path></svg>