<?xml version="1.0" standalone="no"?><!DOCTYPE svg PUBLIC "-//W3C//DTD SVG 1.1//EN" "http://www.w3.org/Graphics/SVG/1.1/DTD/svg11.dtd"><svg t="1591760914420" class="icon" viewBox="0 0 1024 1024" version="1.1" xmlns="http://www.w3.org/2000/svg" p-id="8892" xmlns:xlink="http://www.w3.org/1999/xlink" width="200" height="200"><defs><style type="text/css"></style></defs><path d="M701.72 568c-39.29 0-89.95 24.13-132.85 67a284.83 284.83 0 0 0-23.37 26.43V571.7a74.18 74.18 0 0 0 28.91 5.37c39.29 0 89.95-24.13 132.85-67 63.29-63.29 85.73-143.48 50.1-179.11-11.47-11.51-27.58-16.96-46.25-16.96-39.29 0-89.95 24.13-132.85 67a279 279 0 0 0-32.76 39.26v-41.08c35.76-21.93 61.44-82.25 61.44-153.23 0-89.51-40.84-162.08-91.22-162.08s-91.22 72.56-91.22 162.08c0 68 23.58 126.23 57 150.28v41.83a277.6 277.6 0 0 0-34.62-42C404 333.13 353.31 309 314 309c-18.67 0-34.78 5.45-46.26 16.93-35.62 35.62-13.19 115.81 50.1 179.11 42.9 42.9 93.57 67 132.85 67 11.37 0 21.78-2 30.78-6.21v93A283.79 283.79 0 0 0 456.26 630c-42.9-42.9-93.57-67-132.85-67-18.67 0-34.78 5.45-46.26 16.93C241.53 615.55 264 695.74 327.25 759c42.9 42.9 93.57 67 132.85 67a79.44 79.44 0 0 0 21.39-2.77v105.53a31.71 31.71 0 0 0 4.2 15.79q0.47 0.82 1 1.61l0.56 0.82q0.66 0.95 1.39 1.85c0.41 0.5 0.82 1 1.26 1.47a31.94 31.94 0 0 0 23.61 10.46 32.09 32.09 0 0 0 32-32v-100a80.86 80.86 0 0 0 19.49 2.31c39.29 0 89.95-24.13 132.85-67 63.29-63.29 85.73-143.48 50.1-179.11C736.5 573.45 720.39 568 701.72 568zM581.4 487.48c8.15-20.46 23.1-42.19 42.11-61.2 32.71-32.7 67.66-47.85 86.78-48.28-0.14 5.14-1.47 13.78-6.17 25.58C696 424 681 445.78 662 464.78c-32.71 32.71-67.66 47.85-86.78 48.28 0.15-5.14 1.48-13.78 6.18-25.58z m-218.28-27.7c-19-19-34-40.74-42.11-61.2-4.7-11.8-6-20.44-6.17-25.58 19.12 0.42 54.07 15.57 86.78 48.28 19 19 34 40.74 42.11 61.2 4.7 11.8 6 20.44 6.17 25.58-19.12-0.42-54.08-15.57-86.78-48.28z m9.39 254c-19-19-34-40.74-42.11-61.2-4.7-11.8-6-20.44-6.17-25.58 19.12 0.42 54.07 15.57 86.78 48.28 19 19 34 40.74 42.11 61.2 4.7 11.8 6 20.44 6.17 25.58-19.12-0.42-54.08-15.57-86.78-48.28zM502 152.9c5-11.68 10.19-18.73 13.73-22.46 3.53 3.73 8.7 10.78 13.73 22.46 8.7 20.23 13.5 46.17 13.5 73s-4.79 52.82-13.5 73c-5 11.68-10.19 18.73-13.73 22.46-3.55-3.64-8.73-10.69-13.73-22.36-8.7-20.23-13.5-46.17-13.5-73s4.78-52.88 13.5-73.1z m192.73 504.69c-8.15 20.46-23.1 42.19-42.11 61.2-32.71 32.71-67.66 47.85-86.78 48.28 0.14-5.14 1.47-13.78 6.17-25.58 8.15-20.46 23.1-42.19 42.11-61.2 32.71-32.71 67.66-47.85 86.78-48.28-0.14 5.14-1.47 13.78-6.17 25.58z" fill="#457f84" p-id="8893"></path></svg>