<?xml version="1.0" standalone="no"?><!DOCTYPE svg PUBLIC "-//W3C//DTD SVG 1.1//EN" "http://www.w3.org/Graphics/SVG/1.1/DTD/svg11.dtd"><svg t="1591783026658" class="icon" viewBox="0 0 1024 1024" version="1.1" xmlns="http://www.w3.org/2000/svg" p-id="13998" xmlns:xlink="http://www.w3.org/1999/xlink" width="200" height="200"><defs><style type="text/css"></style></defs><path d="M491.52 327.68v655.36a20.48 20.48 0 1 0 40.96 0V327.68a20.48 20.48 0 1 0-40.96 0zM389.12 122.88v163.84a20.48 20.48 0 0 0 40.96 0V122.88a20.48 20.48 0 1 0-40.96 0zM491.52 40.96v204.8a20.48 20.48 0 1 0 40.96 0V40.96a20.48 20.48 0 1 0-40.96 0zM593.92 122.88v163.84a20.48 20.48 0 1 0 40.96 0V122.88a20.48 20.48 0 1 0-40.96 0zM676.12672 349.63456A130.78528 130.78528 0 0 0 593.92 471.04a48.86528 48.86528 0 0 0 66.9696 45.34272l7.3728-2.90816A142.41792 142.41792 0 0 0 757.76 381.21472V317.0304l-81.63328 32.64512z m-15.23712-38.05184L798.72 256.45056v124.76416a183.37792 183.37792 0 0 1-115.26144 170.27072l-7.3728 2.94912A89.82528 89.82528 0 0 1 552.96 471.04a171.74528 171.74528 0 0 1 107.9296-159.45728z" p-id="13999" fill="#0ff7ab"></path><path d="M676.12672 554.43456A130.78528 130.78528 0 0 0 593.92 675.84a48.86528 48.86528 0 0 0 66.9696 45.34272l7.3728-2.90816a142.41792 142.41792 0 0 0 89.4976-132.25984V521.8304l-81.63328 32.64512z m-15.23712-38.05184l137.8304-55.13216v124.76416a183.37792 183.37792 0 0 1-115.26144 170.27072l-7.3728 2.94912A89.82528 89.82528 0 0 1 552.96 675.84a171.74528 171.74528 0 0 1 107.9296-159.45728z" p-id="14000" fill="#0ff7ab"></path><path d="M676.12672 759.23456A130.78528 130.78528 0 0 0 593.92 880.64a48.86528 48.86528 0 0 0 66.9696 45.34272l7.3728-2.90816a142.41792 142.41792 0 0 0 89.4976-132.25984V726.6304l-81.63328 32.64512z m-15.23712-38.05184l137.8304-55.13216v124.76416a183.37792 183.37792 0 0 1-115.26144 170.27072l-7.3728 2.94912A89.82528 89.82528 0 0 1 552.96 880.64a171.74528 171.74528 0 0 1 107.9296-159.45728zM347.87328 349.63456A130.78528 130.78528 0 0 1 430.08 471.04a48.86528 48.86528 0 0 1-66.9696 45.34272l-7.3728-2.90816A142.41792 142.41792 0 0 1 266.24 381.21472V317.0304l81.63328 32.64512z m15.23712-38.05184L225.28 256.45056v124.76416a183.37792 183.37792 0 0 0 115.26144 170.27072l7.3728 2.94912A89.82528 89.82528 0 0 0 471.04 471.04a171.74528 171.74528 0 0 0-107.9296-159.45728z" p-id="14001" fill="#0ff7ab"></path><path d="M266.24 521.78944l81.63328 32.64512A130.78528 130.78528 0 0 1 430.08 675.84a48.86528 48.86528 0 0 1-66.9696 45.34272l-7.3728-2.90816A142.41792 142.41792 0 0 1 266.24 586.01472V521.8304z m96.8704-5.40672L225.28 461.25056v124.76416a183.37792 183.37792 0 0 0 115.26144 170.27072l7.3728 2.94912A89.82528 89.82528 0 0 0 471.04 675.84a171.74528 171.74528 0 0 0-107.9296-159.45728z" p-id="14002" fill="#0ff7ab"></path><path d="M347.87328 759.23456A130.78528 130.78528 0 0 1 430.08 880.64a48.86528 48.86528 0 0 1-66.9696 45.34272l-7.3728-2.90816A142.41792 142.41792 0 0 1 266.24 790.81472V726.6304l81.63328 32.64512z m15.23712-38.05184L225.28 666.05056v124.76416a183.37792 183.37792 0 0 0 115.26144 170.27072l7.3728 2.94912A89.82528 89.82528 0 0 0 471.04 880.64a171.74528 171.74528 0 0 0-107.9296-159.45728z" p-id="14003" fill="#0ff7ab"></path></svg>