<?xml version="1.0" standalone="no"?><!DOCTYPE svg PUBLIC "-//W3C//DTD SVG 1.1//EN" "http://www.w3.org/Graphics/SVG/1.1/DTD/svg11.dtd"><svg t="1591783045009" class="icon" viewBox="0 0 1024 1024" version="1.1" xmlns="http://www.w3.org/2000/svg" p-id="14164" xmlns:xlink="http://www.w3.org/1999/xlink" width="200" height="200"><defs><style type="text/css"></style></defs><path d="M517.23739 550.467725v18.782363l85.965432-34.313933a126.672593 126.672593 0 0 0 79.825044-117.389771V397.319224l-88.132628 36.842328c-46.955908 19.504762-77.657848 65.377072-77.657848 116.306173zM420.797178 535.297354l85.965432 34.313933v-18.782363c0-50.929101-30.70194-97.16261-77.657848-116.667372L340.972134 397.319224v20.58836c0 51.651499 31.424339 98.246208 79.825044 117.38977z" fill="#0ff7ab" p-id="14165"></path><path d="M517.598589 677.609877c-1.805996 0.361199-3.973192 1.083598-6.140388 1.083597-2.167196 0-3.973192-0.361199-5.417989-0.722398-1.444797-49.484303-31.424339-93.911817-77.296649-113.055379l-88.132628-36.481129v20.58836c0 51.651499 31.424339 98.246208 79.825044 117.38977l54.179894 21.671958c15.892769 6.140388 26.006349 21.310758 26.006349 38.287125v236.946738c0 6.140388 4.695591 10.835979 10.835979 10.835978 6.140388 0 10.835979-4.695591 10.835979-10.835978v-236.585538c0-16.976367 10.47478-32.507937 26.367548-39.009524l54.541094-21.671958a126.672593 126.672593 0 0 0 79.825044-117.389771v-20.588359l-88.132628 36.481128a127.286631 127.286631 0 0 0-77.296649 113.05538zM682.305467 264.036684V69.350265c0-5.05679-4.334392-9.391182-9.391181-9.391182s-9.391182 4.334392-9.391182 9.391182v171.930864c0 18.421164-11.197178 35.036332-28.173545 41.899118l-40.81552 16.976367c-46.955908 19.504762-77.657848 65.738272-77.657849 116.667372v18.782363l85.965433-34.313933a126.672593 126.672593 0 0 0 79.825044-117.38977V263.675485l-0.3612 0.361199zM420.797178 401.653616l85.965432 34.313933v-18.782364c0-50.929101-30.70194-97.16261-77.657848-116.667372l-36.11993-15.17037c-20.22716-8.307584-33.591534-28.173545-33.591534-50.206702V69.350265c0-5.05679-4.334392-9.391182-9.391182-9.391182s-9.391182 4.334392-9.391181 9.391182v214.91358c0.361199 51.651499 31.785538 98.246208 80.186243 117.389771zM511.097002 308.825397s67.544268-55.624691 15.892769-124.252557a34.711252 34.711252 0 0 1-7.946385-22.394357l1.805997-96.079012c0-5.05679-2.889594-9.391182-7.946385-9.391182s-8.668783 3.611993-8.668783 9.391182v94.634215c0 7.585185-2.167196 15.17037-6.862786 20.949559-20.58836 24.922751-44.066314 75.129453 13.725573 127.142152z" fill="#0ff7ab" p-id="14166"></path></svg>