<?xml version="1.0" standalone="no"?><!DOCTYPE svg PUBLIC "-//W3C//DTD SVG 1.1//EN" "http://www.w3.org/Graphics/SVG/1.1/DTD/svg11.dtd"><svg t="1591755928760" class="icon" viewBox="0 0 1024 1024" version="1.1" xmlns="http://www.w3.org/2000/svg" p-id="13930" xmlns:xlink="http://www.w3.org/1999/xlink" width="200" height="200"><defs><style type="text/css"></style></defs><path d="M892.29074 0S768.38674 95.19 752.85574 154.368c-7.722 41.173 12.928 72.021 54.187 82.347 20.65 5.162 74.923 0 85.248-74.624 12.928-74.624 0-162.091 0-162.091zM755.41574 316.459s-5.162-61.739 108.502-64.342c103.253-5.162 141.994-12.885 160.085-38.613-5.163 18.005-67.157 105.472-152.32 144.085-46.507 18.048-113.621 18.048-116.267-41.13z m-77.44 120.917s18.048-46.293 105.814-46.293c82.688 2.56 157.525-15.446 170.453-30.891-2.56 18.005-87.765 123.477-136.832 149.205-59.392 33.451-95.573 33.451-118.784 12.886-10.283-12.8-36.096-36.011-20.65-84.907z m-74.837 159.53s12.928-51.455 85.205-48.895c67.115-2.56 144.598-5.163 191.062-36.011-25.814 84.907-121.344 149.205-170.454 164.65-54.186 20.566-90.368 18.006-105.813-7.722-12.928-28.288 0-72.021 0-72.021zM546.30674 733.27c12.928-10.282 38.741-20.565 74.88-20.565 64.597 0 142.08-23.168 162.688-30.89 20.65-25.729-46.507 79.786-87.808 108.074-38.741 33.45-95.53 59.179-142.037 38.613-46.507-23.21-38.742-74.666-7.723-95.232zM652.11974 36.011s28.416 131.2 80.043 164.65c51.627 33.451 15.53 92.63 2.56 102.912-15.488 7.68-90.368 30.891-118.741-36.01-30.934-66.859-7.723-198.102 36.181-231.552z m-80 177.493c0 0.043 15.488 95.232 77.483 187.861 18.048 38.614-33.579 64.342-36.139 64.342-46.506 12.885-95.573 0-100.736-69.462-2.56-69.504 2.56-123.52 59.392-182.698z m-90.41 159.573s12.97 51.456 43.946 95.19c23.211 30.89 56.747 66.901 61.91 79.786 12.97 30.848-2.56 56.576-23.254 64.299-25.813 10.283-74.88 18.005-92.928-10.283-20.608-28.33-54.186-128.682 10.326-228.992zM393.94274 522.24s59.392 95.19 105.856 151.808c38.742 61.739 10.326 97.75-28.373 102.912-43.947 2.56-72.277 10.283-87.808-48.896-2.56-18.005-25.813-72.021 10.325-205.824z m43.904 275.285s69.718 36.011 82.646 33.451C533.42174 828.459 391.38274 1024 391.38274 1024l-43.904-5.163s90.368-162.09 90.368-221.269zM130.56274 231.552s-28.373 66.901-15.488 141.525c7.723 41.174 64.555 30.891 72.277 25.728 7.68-5.162 43.862-28.288 15.488-74.624-25.77-48.896-72.277-92.586-72.277-92.586z m59.392 231.552s-23.253-33.45 33.579-74.624c49.066-36.01 59.349-51.413 74.88-74.624 2.56 28.288 2.56 102.912-23.254 136.363-23.21 30.89-67.072 36.053-85.205 12.885z m10.368 92.63s0-36.011 38.741-56.62c49.067-28.287 87.766-66.9 85.206-79.786 2.56 18.048 7.765 97.792-23.254 149.248-18.048 33.45-38.741 38.613-54.186 38.613-38.742-2.56-43.947-33.45-46.507-51.456z m25.813 123.52s-2.56-30.891 28.374-56.62c38.784-25.727 74.922-48.895 90.41-84.906 10.326 15.445 12.928 108.075-20.65 159.573-20.651 30.848-30.976 30.848-59.392 20.48-38.742-10.24-38.742-38.528-38.742-38.528z m28.374 102.911c2.56-10.282 18.09-28.288 38.784-41.173 20.608-12.885 61.952-46.293 74.88-72.021 5.162 23.168 2.56 56.618-5.206 92.629-7.722 33.45-23.253 72.021-61.952 74.667-33.621 2.474-51.669-30.976-46.506-54.102zM1.45274 339.627s74.88 66.901 121.344 66.901c46.506 2.56 49.066 38.613 41.344 56.619-5.206 10.282-33.579 51.456-80.043 23.168-46.464-28.288-92.97-110.678-82.645-146.688z m33.578 131.2s51.627 61.738 129.11 72.021c38.741 2.56 30.976 46.293 18.048 59.179-20.608 23.168-59.392 18.005-85.206 0-43.904-38.571-59.306-66.859-61.952-131.2z m20.694 126.08s41.301 38.613 136.832 61.738c36.138 10.24 28.416 38.614 18.09 51.456-10.325 15.446-28.416 30.891-56.832 23.168-41.344-10.282-90.368-56.618-98.133-136.362zM71.21274 712.704s54.186 25.728 142.037 54.016c49.067 20.565 41.301 56.619 20.65 72.021-20.65 20.566-46.506 25.728-80.042-2.56-36.181-38.613-61.995-79.744-82.645-123.477z m149.76 144.043s56.789-2.56 61.952-10.24c5.162-5.206 12.928 156.885 12.928 156.885l-25.814 12.885c0 2.56-20.693-123.477-49.066-159.53z m0 0" p-id="13931" fill="#0ff7ab"></path></svg>