<?xml version="1.0" standalone="no"?><!DOCTYPE svg PUBLIC "-//W3C//DTD SVG 1.1//EN" "http://www.w3.org/Graphics/SVG/1.1/DTD/svg11.dtd"><svg t="1591756068594" class="icon" viewBox="0 0 1024 1024" version="1.1" xmlns="http://www.w3.org/2000/svg" p-id="18080" xmlns:xlink="http://www.w3.org/1999/xlink" width="200" height="200"><defs><style type="text/css"></style></defs><path d="M302.5408 39.11168l-238.00832 118.05184h476.02176L302.5408 39.11168z m176.896 118.04672h-353.79712v212.70016h131.54816a63.19104 63.19104 0 0 1-2.8928-17.72544V281.23648c0.01024-29.36832 21.62176-53.16608 48.26624-53.15072 26.62912 0.01024 48.21504 23.80288 48.22016 53.15072v70.90176a63.37536 63.37536 0 0 1-2.8928 17.72544h131.54816V157.1584z m249.78432 20.56192a132.3264 132.3264 0 0 0-14.88896-61.68064c0-55.6544-26.94656-100.67968-58.84416-100.67968-31.90784 0-58.1376 45.02016-59.20256 100.67968a132.07552 132.07552 0 0 0-14.88896 61.68064 101.0176 101.0176 0 0 0 59.20256 101.38624v90.752h29.42464V279.10656a101.02784 101.02784 0 0 0 59.19744-101.38624z m177.24928 0a132.25984 132.25984 0 0 0-14.88384-61.68064c0-55.6544-26.94656-100.67968-58.84928-100.67968s-58.13248 45.02016-59.20256 100.67968a132.13696 132.13696 0 0 0-14.88384 61.68064 101.0176 101.0176 0 0 0 59.20256 101.38624v90.752h29.42464V279.10656a101.02784 101.02784 0 0 0 59.19232-101.38624z" p-id="18081" fill="#0ff7ab"></path><path d="M571.68896 1024h168.20736l34.87232-642.56H665.1392zM918.47168 381.44h-118.31296L783.44192 1024h151.61856zM639.74912 381.44h-117.69344L318.29504 1024h209.84832zM943.86176 381.44l34.7392 642.56h45.39904V381.44z" p-id="18082" fill="#0ff7ab"></path><path d="M0 663.89504v107.09504h327.87456l42.3424-107.09504zM436.17792 497.07008l45.7216-115.63008H0v115.63008zM0 526.93504v107.09504h382.0288l42.3424-107.09504zM273.72544 907.95008l42.3424-107.09504H0v107.09504zM0 937.81504V1024h227.84l34.0736-86.18496z" p-id="18083" fill="#0ff7ab"></path></svg>