<?xml version="1.0" standalone="no"?><!DOCTYPE svg PUBLIC "-//W3C//DTD SVG 1.1//EN" "http://www.w3.org/Graphics/SVG/1.1/DTD/svg11.dtd"><svg t="1591762733171" class="icon" viewBox="0 0 1024 1024" version="1.1" xmlns="http://www.w3.org/2000/svg" p-id="13430" xmlns:xlink="http://www.w3.org/1999/xlink" width="200" height="200"><defs><style type="text/css"></style></defs><path d="M1000.727273 556.218182C1000.727273 390.981818 868.072727 0 684.218182 0 570.181818 0 474.763636 153.6 418.909091 309.527273 374.690909 244.363636 325.818182 207.127273 276.945455 207.127273 123.345455 207.127273 23.272727 521.309091 23.272727 649.309091 23.272727 781.963636 125.672727 889.018182 253.672727 900.654545L253.672727 986.763636C253.672727 1000.727273 262.981818 1010.036364 276.945455 1010.036364 290.909091 1010.036364 300.218182 1000.727273 300.218182 986.763636L300.218182 900.654545C372.363636 893.672727 439.854545 856.436364 481.745455 798.254545 530.618182 840.145455 593.454545 865.745455 660.945455 870.4L660.945455 986.763636C660.945455 1000.727273 670.254545 1010.036364 684.218182 1010.036364 698.181818 1010.036364 707.490909 1000.727273 707.490909 986.763636L707.490909 870.4C870.4 858.763636 1000.727273 723.781818 1000.727273 556.218182L1000.727273 556.218182ZM300.218182 854.109091 300.218182 532.945455C300.218182 518.981818 290.909091 509.672727 276.945455 509.672727 262.981818 509.672727 253.672727 518.981818 253.672727 532.945455L253.672727 684.218182 195.490909 626.036364C186.181818 616.727273 172.218182 616.727273 162.909091 626.036364 153.6 635.345455 153.6 649.309091 162.909091 658.618182L253.672727 749.381818 253.672727 854.109091C151.272727 842.472727 69.818182 754.036364 69.818182 649.309091 69.818182 525.963636 169.890909 253.672727 276.945455 253.672727 316.509091 253.672727 360.727273 295.563636 400.290909 367.709091 379.345455 439.854545 367.709091 507.345455 367.709091 556.218182 367.709091 637.672727 397.963636 709.818182 446.836364 765.672727 414.254545 814.545455 360.727273 847.127273 300.218182 854.109091L300.218182 854.109091ZM707.490909 823.854545 707.490909 542.254545 802.909091 449.163636C812.218182 439.854545 812.218182 425.890909 802.909091 416.581818 793.6 407.272727 779.636364 407.272727 770.327273 416.581818L707.490909 477.090909 707.490909 316.509091C707.490909 302.545455 698.181818 293.236364 684.218182 293.236364 670.254545 293.236364 660.945455 302.545455 660.945455 316.509091L660.945455 616.727273 549.236364 505.018182C539.927273 495.709091 525.963636 495.709091 516.654545 505.018182 507.345455 514.327273 507.345455 528.290909 516.654545 537.6L660.945455 681.890909 660.945455 823.854545C523.636364 812.218182 414.254545 695.854545 414.254545 556.218182 414.254545 507.345455 425.890909 442.181818 446.836364 374.690909 446.836364 372.363636 449.163636 370.036364 449.163636 367.709091 498.036364 211.781818 588.8 46.545455 684.218182 46.545455 823.854545 46.545455 954.181818 397.963636 954.181818 556.218182 954.181818 698.181818 844.8 812.218182 707.490909 823.854545L707.490909 823.854545Z" p-id="13431" fill="#0ff7ab"></path></svg>