<?xml version="1.0" standalone="no"?><!DOCTYPE svg PUBLIC "-//W3C//DTD SVG 1.1//EN" "http://www.w3.org/Graphics/SVG/1.1/DTD/svg11.dtd"><svg t="1591755586145" class="icon" viewBox="0 0 1024 1024" version="1.1" xmlns="http://www.w3.org/2000/svg" p-id="4954" xmlns:xlink="http://www.w3.org/1999/xlink" width="200" height="200"><defs><style type="text/css"></style></defs><path d="M225.28 852.48H102.4c-5.12 0-12.8-2.56-15.36-7.68-2.56-5.12-5.12-12.8-2.56-17.92l179.2-450.56c7.68-17.92 23.04-28.16 43.52-28.16s35.84 10.24 43.52 28.16l35.84 92.16-35.84 15.36-35.84-92.16c-2.56-5.12-5.12-5.12-7.68-5.12s-5.12 0-7.68 5.12L130.56 814.08h94.72v38.4z" p-id="4955" fill="#0ff7ab"></path><path d="M225.28 568.32l-15.36-20.48 17.92-15.36c10.24-7.68 23.04-7.68 30.72 0l10.24 10.24 10.24-7.68c10.24-7.68 23.04-7.68 30.72 0l10.24 10.24 10.24-10.24c10.24-7.68 23.04-7.68 30.72 0l-15.36 20.48-10.24 10.24c-10.24 7.68-23.04 7.68-30.72 0l-10.24-10.24-10.24 10.24c-10.24 7.68-23.04 7.68-30.72 0l-10.24-7.68-17.92 10.24zM921.6 852.48h-122.88v-38.4h94.72l-168.96-424.96c-2.56-5.12-5.12-5.12-7.68-5.12s-5.12 0-7.68 5.12l-35.84 92.16-35.84-15.36 35.84-92.16c7.68-17.92 23.04-28.16 43.52-28.16s35.84 10.24 43.52 28.16l179.2 450.56c2.56 5.12 2.56 12.8-2.56 17.92-2.56 7.68-10.24 10.24-15.36 10.24z" p-id="4956" fill="#0ff7ab"></path><path d="M798.72 568.32l-17.92-15.36-10.24 10.24c-10.24 7.68-23.04 7.68-30.72 0l-10.24-10.24-10.24 10.24c-10.24 7.68-23.04 7.68-30.72 0l-10.24-7.68-15.36-20.48c10.24-7.68 23.04-7.68 30.72 0l10.24 10.24 10.24-10.24c10.24-7.68 23.04-7.68 30.72 0l10.24 10.24 10.24-10.24c10.24-7.68 23.04-7.68 30.72 0l17.92 15.36-15.36 17.92z" p-id="4957" fill="#0ff7ab"></path><path d="M814.08 890.88H209.92c-5.12 0-12.8-2.56-15.36-7.68-2.56-5.12-5.12-12.8-2.56-17.92l281.6-704c7.68-15.36 23.04-25.6 38.4-25.6s33.28 10.24 38.4 25.6l279.04 701.44c2.56 5.12 2.56 12.8-2.56 17.92 0 5.12-7.68 10.24-12.8 10.24zM238.08 852.48h547.84L514.56 174.08s0-2.56-2.56-2.56-2.56 2.56-2.56 2.56L238.08 852.48z" p-id="4958" fill="#0ff7ab"></path><path d="M624.64 419.84l-28.16-23.04c-2.56-2.56-5.12-2.56-7.68 0l-15.36 12.8c-12.8 10.24-28.16 10.24-38.4 0l-15.36-12.8c-2.56-2.56-5.12-2.56-7.68 0l-15.36 12.8c-12.8 10.24-28.16 10.24-38.4 0l-23.04-10.24c-2.56-2.56-5.12-2.56-7.68 0l-28.16 23.04-15.36-20.48 28.16-23.04c12.8-10.24 28.16-10.24 38.4 0l15.36 12.8c2.56 2.56 5.12 2.56 7.68 0l15.36-12.8c12.8-10.24 28.16-10.24 38.4 0l15.36 12.8c2.56 2.56 5.12 2.56 7.68 0l15.36-12.8c12.8-10.24 28.16-10.24 38.4 0l28.16 23.04-7.68 17.92zM360.96 232.96c-2.56 0-7.68-2.56-10.24-5.12l-7.68-7.68c-2.56-2.56-5.12-5.12-10.24-5.12-2.56 0-7.68 2.56-10.24 5.12l-7.68 7.68-17.92-17.92 12.8-5.12c7.68-7.68 17.92-12.8 28.16-12.8 10.24 0 17.92 2.56 25.6 10.24 15.36-12.8 38.4-12.8 53.76 2.56l7.68 7.68-17.92 17.92-7.68-7.68c-5.12-5.12-12.8-5.12-17.92 0l-7.68 7.68c-5.12 0-7.68 2.56-12.8 2.56zM670.72 307.2c-2.56 0-7.68-2.56-10.24-5.12l-5.12-5.12c-2.56-2.56-5.12-2.56-7.68 0l-5.12 5.12-17.92-17.92 5.12-5.12c5.12-5.12 12.8-10.24 23.04-10.24 7.68 0 12.8 2.56 17.92 5.12 12.8-7.68 30.72-7.68 40.96 5.12l5.12 5.12-17.92 17.92-7.68-5.12c-2.56-2.56-5.12-2.56-7.68 0l-5.12 5.12c-2.56 2.56-5.12 5.12-7.68 5.12z" p-id="4959" fill="#0ff7ab"></path></svg>