<?xml version="1.0" standalone="no"?><!DOCTYPE svg PUBLIC "-//W3C//DTD SVG 1.1//EN" "http://www.w3.org/Graphics/SVG/1.1/DTD/svg11.dtd"><svg t="1591755967983" class="icon" viewBox="0 0 1582 1024" version="1.1" xmlns="http://www.w3.org/2000/svg" p-id="14904" xmlns:xlink="http://www.w3.org/1999/xlink" width="308.984375" height="200"><defs><style type="text/css"></style></defs><path d="M166.13263 1017.562361l-50.462786-50.878118v-16.197932L182.953559 1017.562361z m207.665788 0l-51.085784-51.085784v-16.197932L390.619347 1017.562361z m-51.085784-74.344352V789.129994a569.834922 569.834922 0 0 0 65.414724 20.766579z m637.533969 79.743662l-77.251673-77.459339V760.056784H475.346988c-100.925573 0-204.758467-60.846076-205.796795-62.299737l-27.827216-16.405597-126.053133 262.074224v-190.014196l-6.022308-7.8913A629.019671 629.019671 0 0 1 0 400.379639C0 188.35287 308.383695 143.704725 567.135267 143.704725a3127.654431 3127.654431 0 0 1 465.794362 38.625837L1059.095518 186.899209l7.683634-24.919894a279.102819 279.102819 0 0 1 84.519976-121.899818A217.42608 217.42608 0 0 1 1258.66234 0l-9.34496 135.398094 230.71669 179.007909h101.54857v134.982762L992.642466 707.102008v118.78483L940.103022 955.262624l68.52971 68.737376z m48.80146-83.066315l41.533158-103.832894v-90.334618l58.354086-25.335226V830.663151l-20.766579 156.164673 36.964511 37.172176H1092.322044z" p-id="14905" fill="#0ff7ab"></path></svg>