<?xml version="1.0" standalone="no"?><!DOCTYPE svg PUBLIC "-//W3C//DTD SVG 1.1//EN" "http://www.w3.org/Graphics/SVG/1.1/DTD/svg11.dtd"><svg t="1591756143137" class="icon" viewBox="0 0 1024 1024" version="1.1" xmlns="http://www.w3.org/2000/svg" p-id="20415" xmlns:xlink="http://www.w3.org/1999/xlink" width="200" height="200"><defs><style type="text/css"></style></defs><path d="M825.6 102.4c-6.4-6.4-19.2-12.8-32-12.8-25.6 0-51.2 25.6-51.2 51.2s12.8 38.4 12.8 38.4c96 76.8 160 192 160 326.4 0 224-179.2 409.6-403.2 409.6s-403.2-185.6-403.2-409.6c0-134.4 64-249.6 160-326.4 6.4-6.4 12.8-19.2 12.8-38.4 0-25.6-25.6-51.2-51.2-51.2s-38.4 12.8-38.4 12.8C76.8 198.4 0 339.2 0 499.2c0 281.6 230.4 512 505.6 512 281.6 0 505.6-230.4 505.6-512 6.4-160-70.4-300.8-185.6-396.8z m-320 454.4c25.6 0 51.2-25.6 51.2-51.2V51.2c0-25.6-19.2-51.2-51.2-51.2s-51.2 25.6-51.2 51.2v454.4c0 32 25.6 51.2 51.2 51.2z" p-id="20416" fill="#0ff7ab"></path></svg>