<?xml version="1.0" standalone="no"?><!DOCTYPE svg PUBLIC "-//W3C//DTD SVG 1.1//EN" "http://www.w3.org/Graphics/SVG/1.1/DTD/svg11.dtd"><svg t="1591755437316" class="icon" viewBox="0 0 1024 1024" version="1.1" xmlns="http://www.w3.org/2000/svg" p-id="2971" xmlns:xlink="http://www.w3.org/1999/xlink" width="200" height="200"><defs><style type="text/css"></style></defs><path d="M703.043726 396.214567a22.378321 22.378321 0 0 1-22.378321-22.378321c0-121.405588-98.768318-220.173907-220.170709-220.173906s-220.173907 98.768318-220.173907 220.173906a22.378321 22.378321 0 1 1-44.756642 0c0-146.082483 118.848066-264.930549 264.930549-264.930548 146.079286 0 264.927352 118.848066 264.927351 264.930548a22.378321 22.378321 0 0 1-22.378321 22.378321z" fill="#0ff7ab" p-id="2972"></path><path d="M807.777466 722.129237H213.032025c-102.195398 0-185.337255-83.141856-185.337254-185.337254s83.141856-185.337255 185.337254-185.337255a22.378321 22.378321 0 1 1 0 44.756642c-77.515307 0-140.580613 63.065305-140.580612 140.580613s63.065305 140.580613 140.580612 140.580612h594.745441c77.515307 0 140.580613-63.065305 140.580612-140.580612s-63.065305-140.580613-140.580612-140.580613a22.378321 22.378321 0 1 1 0-44.756642c102.195398 0 185.337255 83.141856 185.337254 185.337255s-83.141856 185.337255-185.337254 185.337254z" fill="#0ff7ab" p-id="2973"></path><path d="M807.777466 396.214567h-179.148051a22.378321 22.378321 0 1 1 0-44.756642h179.148051a22.378321 22.378321 0 1 1 0 44.756642zM185.148637 916.705542a22.378321 22.378321 0 0 1-13.727501-40.063589l142.342106-110.373076a22.378321 22.378321 0 1 1 27.423034 35.367338l-142.342106 110.373076a22.282414 22.282414 0 0 1-13.695533 4.696251zM392.947332 916.705542a22.378321 22.378321 0 0 1-13.727501-40.063589l142.342106-110.373076a22.378321 22.378321 0 1 1 27.423034 35.367338l-142.342106 110.373076a22.282414 22.282414 0 0 1-13.695533 4.696251zM600.746027 916.705542a22.378321 22.378321 0 0 1-13.727501-40.063589l142.342106-110.373076a22.378321 22.378321 0 1 1 27.423034 35.367338l-142.342106 110.373076a22.282414 22.282414 0 0 1-13.695533 4.696251z" fill="#0ff7ab" p-id="2974"></path></svg>