<?xml version="1.0" standalone="no"?><!DOCTYPE svg PUBLIC "-//W3C//DTD SVG 1.1//EN" "http://www.w3.org/Graphics/SVG/1.1/DTD/svg11.dtd"><svg t="1591756687169" class="icon" viewBox="0 0 1040 1024" version="1.1" xmlns="http://www.w3.org/2000/svg" p-id="8764" xmlns:xlink="http://www.w3.org/1999/xlink" width="203.125" height="200"><defs><style type="text/css"></style></defs><path d="M424.48648419 895.07976533c-0.31068918-0.67108864-36.46869655-71.69463637-156.94774878-168.2692627-5.54269506-4.44285535-17.9578349-12.99923551-32.33031662-22.91022051-54.03506309-37.23920574-144.4766849-99.56967007-171.67441616-146.59558514-27.90610261-48.23138911-32.7155712-94.46815365-14.30413009-137.42404039C79.00011027 350.4416237 158.39983843 314.69993984 200.62871248 304.52797591c61.43567948-14.80123278 141.61834439-24.30832185 194.67784344-30.60288473 16.26147195-1.92627295 31.89535175-3.77798049 41.68206109-5.20715075a1179.32643669 1179.32643669 0 0 0-27.52084803-6.39398343c-12.47727767-2.78998889-25.38330643-5.6793983-36.49355169-8.66822826-23.41975077-6.31320425-27.42142749-18.64135111-26.65713209-27.86881992 1.38567376-16.61565762 18.4176549-27.3033656 62.86484973-39.42024381 26.80004912-7.31362341 59.73931653-13.67653793 81.95980705-15.84514844 13.85052387-1.34839106 18.05725545-2.19967943 19.32486732-2.60357538 0.21748243-0.13048946 0.42253729-0.27340649 0.6462335-0.4163235 7.72994693-5.00830966 18.67242003-10.35216365 67.07779508-20.6670446 36.73588926-7.82936747 57.8441125-5.63590181 68.41375859 7.12099612 6.39398343 7.72373314 7.63052639 17.98890382 3.36165698 28.16086775-7.35090612 17.54151139-31.08134608 34.41193415-50.79768177 36.09586953-40.27774597 3.44864995-57.27244439 9.42630988-64.1013927 12.9992355 0.32933054 0.17398594 0.67108864 0.32311675 1.00663296 0.45982 44.40991213 17.36752545 51.15186745 39.89249138 48.9956845 55.73763982-5.0331648 36.79802709-62.28075406 58.32257385-90.37948396 61.17470057-133.19866747 13.53362091-202.45750064 28.91273557-231.88598026 36.87880628-37.97243221 10.27759824-43.68911323 19.71012191-44.2297124 20.80374784 0.33554432 1.36703242 4.97724075 15.14920467 55.83706036 38.25826626 32.50430256 14.77016386 66.32592725 25.20932048 71.19753368 26.51421506 96.468992 25.86176778 216.18374883 70.47052098 221.4965339 72.45893178 171.78626427 60.57196354 285.95832605 148.22359647 351.49510276 211.10708754 71.57657449 68.66852371 102.04275598 122.74086949 103.30415408 125.00890056 0 0 4.20051778 15.87621737-7.56838855 22.43175916-11.76269255 6.55554181-23.73665375-4.98966832-23.73665375-4.98966831-0.29204784-0.52195783-29.82616178-52.60589283-98.01622414-117.75120119-62.88349108-60.07486085-172.49463562-143.89258923-337.55137214-202.06603226l-0.3417581-0.12427567c-1.20547404-0.45360621-121.87715357-45.6029586-218.36478691-71.46472637-5.75396371-1.54723214-42.41528756-12.79418064-77.88356495-29.02458368-51.63654258-23.63101942-75.70252686-46.00685454-75.72738199-70.41459693-0.0372827-32.44216471 40.34609759-47.12533561 70.72528611-55.35238524 30.49103664-8.25190476 101.89362517-24.14676347 237.6275164-37.9351495 25.02290698-2.54765132 57.19166521-20.81617541 58.49655979-30.37297476 0.14913081-1.11226729-3.84633211-8.63715935-26.53907021-17.51044247-14.75152251-5.76639127-29.42226583-20.26314866-26.79383533-38.45710734 1.26761187-8.74900746 5.89688074-16.10612736 14.21713711-22.20806295-4.16323508 0.60895081-9.28960663 1.1806189-15.83272087 1.81442483-26.21595344 2.5538651-63.64157269 10.72499067-88.98759642 18.53571679 3.87118725 0.88235728 7.77965719 1.75228701 11.65084444 2.61600294 49.7972626 11.13510039 79.85333438 17.85220059 80.44985762 41.02961379 0.55302675 21.39405729-26.05439507 28.80710125-41.94925378 33.23752904-7.38197504 2.0567624-23.46946105 4.01410427-56.25959765 7.90393287-52.21442446 6.19514235-131.12947749 15.54688683-190.5021808 29.85101691-38.68080355 9.32067555-104.37913866 42.21023269-126.85439431 94.62971202-13.72003442 32.00098608-9.55058555 67.44440832 12.38407093 105.36091648 23.15877186 40.02919461 112.82367071 101.83770112 160.99292197 135.03173367 16.17447899 11.14752797 27.85639234 19.20059165 34.41193415 24.45123888 65.70454889 52.66803067 107.27476187 98.40769251 130.58266454 127.5068416 13.67032415 17.06926384 22.51253836 30.52210555 27.85639234 38.581383 27.45871019 41.39622704-19.59206002 35.99023521-23.90442591 30.15549232z m181.31820848-716.51761266c-5.07666128 0.51574405-11.66948579 1.52237701-20.13887299 3.32437428-6.21999749 1.32353593-11.71919606 2.54765132-16.57837492 3.67234617a460.04990407 460.04990407 0 0 1 27.02995911-3.05718158c2.75891997-0.22990999 6.30077667-1.83306619 9.6872888-3.93953887z" fill="#0ff7ab" p-id="8765"></path><path d="M687.89498917 892.52590023c-1.94491429-2.3239551-48.17546506-57.71362304-84.46396188-124.84112839-31.74622094-58.73889735-95.53071067-96.70511579-220.14814283-131.01141561-127.32042809-35.06438144-209.51635892-126.96002864-212.95258132-130.85607101 0 0-8.89813826-12.81903579 0-21.71096026 8.89813826-8.89813826 26.86218695-2.01326592 26.86218696-2.01326592 0.77672297 0.8761435 78.8901979 87.8877567 195.6036972 120.02544602 135.08765772 37.19570925 205.24127573 80.2261614 242.16357851 148.52185809 34.56727874 63.95847566 79.93411357 118.31044172 80.39393355 118.85104089 0 0 7.3571199 13.89402036-1.77714214 23.02828241s-25.68156805 0.00621378-25.68156805 0.00621378zM841.39408801 888.31916866s-4.0016767 10.74363202-14.58375036 10.74363203c-10.57585986 0-14.09286144-10.74363202-14.09286144-10.74363203 0-58.30393249-104.85138622-156.72405258-145.25340785-189.71924404 0 0-7.60567125-9.32688933 0-16.93256059s18.13803463-5.28171615 18.13803462-5.28171615c1.56587349 1.28003945 38.82372059 31.80835877 76.69051848 72.52728339 52.48783094 56.43358359 79.10146655 103.34143678 79.10146655 139.40623739zM560.87903649 885.76530356c-37.86058411-107.68487158-144.26541625-163.47222167-145.33418705-164.01903464 0 0-9.25853772-6.08329424-3.31194671-18.57299949 4.48013805-9.41388231 16.39196141-6.93458261 16.39196141-6.93458261 4.77839967 2.44823077 117.56478768 61.31140381 159.29655902 180.02574146 0 0 1.56587349 12.35300201-6.94079639 16.26768574-14.17985441 6.52447289-20.10159028-6.76681045-20.10159028-6.76681046z" fill="#0ff7ab" p-id="8766"></path></svg>