<?xml version="1.0" standalone="no"?><!DOCTYPE svg PUBLIC "-//W3C//DTD SVG 1.1//EN" "http://www.w3.org/Graphics/SVG/1.1/DTD/svg11.dtd"><svg t="1591756020490" class="icon" viewBox="0 0 1024 1024" version="1.1" xmlns="http://www.w3.org/2000/svg" p-id="15693" xmlns:xlink="http://www.w3.org/1999/xlink" width="200" height="200"><defs><style type="text/css"></style></defs><path d="M768 232.96v102.4c0 12.8 10.24 20.48 25.6 20.48s25.6-10.24 25.6-20.48V171.52c0-5.12-2.56-7.68-5.12-10.24-2.56-5.12-10.24-10.24-15.36-10.24h-163.84c-10.24 0-20.48 10.24-20.48 25.6 0 12.8 10.24 25.6 20.48 25.6h94.72l-2.56 2.56-197.12 230.4-161.28-158.72c-7.68-7.68-20.48-10.24-28.16-5.12h-2.56c-2.56 0-2.56 2.56-5.12 2.56v2.56l-163.84 189.44c-10.24 10.24-7.68 25.6 2.56 35.84 10.24 7.68 25.6 7.68 35.84-2.56l145.92-171.52 161.28 156.16c2.56 2.56 7.68 5.12 12.8 5.12H535.04c7.68 0 17.92-5.12 23.04-12.8L768 238.08v-5.12zM936.96 747.52l48.64-46.08-12.8-38.4-64-5.12-20.48-25.6 5.12-64-35.84-20.48-51.2 40.96-30.72-2.56-35.84-48.64-38.4 12.8-12.8 64-25.6 20.48-56.32-7.68-17.92 35.84 30.72 53.76-2.56 30.72-40.96 35.84 12.8 38.4 56.32 12.8 20.48 25.6v56.32l35.84 20.48 46.08-30.72 30.72 2.56 43.52 40.96 38.4-12.8 5.12-53.76 25.6-20.48 64-2.56 20.48-35.84-38.4-43.52v-33.28z m-15.36 53.76l-12.8 25.6-46.08 2.56-17.92 15.36-5.12 40.96-28.16 7.68-33.28-28.16-23.04-2.56-33.28 23.04-25.6-12.8v-40.96l-15.36-17.92-40.96-12.8-7.68-28.16 30.72-25.6 2.56-23.04-25.6-40.96 12.8-25.6 40.96 5.12 17.92-15.36 10.24-46.08 28.16-7.68 28.16 35.84 23.04 2.56 38.4-28.16 25.6 12.8-5.12 46.08 15.36 17.92 46.08 2.56 7.68 28.16-33.28 33.28-2.56 23.04 28.16 33.28z" fill="#0ff7ab" p-id="15694"></path><path d="M701.44 737.28a74.24 74.24 0 1 0 148.48 0 74.24 74.24 0 1 0-148.48 0Z" fill="#0ff7ab" p-id="15695"></path><path d="M499.2 921.6h-358.4c-28.16 0-51.2-23.04-51.2-51.2V153.6c0-28.16 23.04-51.2 51.2-51.2h716.8c28.16 0 51.2 23.04 51.2 51.2v332.8c0 15.36 10.24 25.6 25.6 25.6s25.6-10.24 25.6-25.6V153.6c0-56.32-46.08-102.4-102.4-102.4h-716.8c-56.32 0-102.4 46.08-102.4 102.4v716.8c0 56.32 46.08 102.4 102.4 102.4h358.4c15.36 0 25.6-10.24 25.6-25.6s-10.24-25.6-25.6-25.6z" fill="#0ff7ab" p-id="15696"></path><path d="M268.8 844.8v-204.8c0-12.8-12.8-25.6-25.6-25.6s-25.6 12.8-25.6 25.6v204.8c0 12.8 12.8 25.6 25.6 25.6s25.6-12.8 25.6-25.6zM450.56 844.8V504.32c0-12.8-12.8-25.6-25.6-25.6s-25.6 12.8-25.6 25.6V844.8c0 12.8 12.8 25.6 25.6 25.6s25.6-12.8 25.6-25.6zM576 499.2v76.8c0 12.8 12.8 25.6 25.6 25.6s25.6-12.8 25.6-25.6v-76.8c0-12.8-12.8-25.6-25.6-25.6s-25.6 10.24-25.6 25.6zM755.2 401.92c-12.8 0-25.6 10.24-25.6 25.6v40.96c0 12.8 12.8 25.6 25.6 25.6s25.6-12.8 25.6-25.6v-40.96c0-12.8-10.24-25.6-25.6-25.6z" fill="#0ff7ab" p-id="15697"></path></svg>