<?xml version="1.0" standalone="no"?><!DOCTYPE svg PUBLIC "-//W3C//DTD SVG 1.1//EN" "http://www.w3.org/Graphics/SVG/1.1/DTD/svg11.dtd"><svg t="1591841257627" class="icon" viewBox="0 0 1024 1024" version="1.1" xmlns="http://www.w3.org/2000/svg" p-id="8405" xmlns:xlink="http://www.w3.org/1999/xlink" width="200" height="200"><defs><style type="text/css"></style></defs><path d="M435.39456 1012.352l-53.12-124.47744-5.44768-1.90976a330.42944 330.42944 0 0 1-32.91136-13.45024l-5.01248-2.43712-126.6432 49.85856-108.23168-108.23168 49.86368-126.66368-2.51392-5.10976c-5.37088-11.71456-9.5744-21.90848-13.09696-31.80032l-1.95584-5.31456-124.91264-54.14912V435.84512l125.02528-54.36928 1.99168-5.03296a410.71104 410.71104 0 0 1 13.31712-32.37888l2.43712-4.84352-49.95072-126.68416 108.25216-108.26752L339.1488 154.1632l5.10976-2.52416a393.60512 393.60512 0 0 1 31.85664-13.1328l5.30432-1.89952 54.1184-124.95872h152.87808l54.3744 124.52864 5.05344 1.96608a448.44032 448.44032 0 0 1 33.39776 13.93152l5.15072 2.36544 125.38368-50.64704 108.44672 108.66688-50.71872 125.53216 2.50368 5.15584c4.6848 9.91744 9.15968 20.79232 14.0288 34.11456l1.84832 5.2992 124.69248 52.79744v153.42592l-124.31872 52.26496-1.93536 5.26848a507.136 507.136 0 0 1-14.19776 34.64704l-2.4064 4.76672 50.71872 125.61408-108.40064 108.65664-125.43488-50.68288-5.13536 2.39616c-9.53344 4.57216-20.3776 9.02144-34.22208 14.06464l-5.26848 1.94048-53.0944 124.62592H435.39456z m50.82624-76.43136h51.87584l46.96576-110.6688 17.41824-5.1456c23.2448-6.72256 44.61568-15.47776 63.46752-26.03008l15.90272-8.81152 111.488 45.01504 36.736-36.736-45.00992-111.5136 8.82688-15.9744a327.79776 327.79776 0 0 0 26.08128-63.38048l5.10464-17.37728 110.95552-46.58176v-51.9168l-110.6688-47.22688-5.16608-17.44384c-6.72768-23.25504-15.49824-44.63104-26.05056-63.48288l-8.7808-15.89248 44.98944-111.47776-36.736-36.736-111.48288 44.99968-15.9488-8.80128c-18.59584-10.33728-39.54688-19.01056-62.23872-25.77408l-17.28-5.12512-48.36352-111.00672H486.0672l-48.384 111.00672-17.27488 5.12a300.86144 300.86144 0 0 0-61.36832 25.12896l-15.77472 8.56064L230.912 194.28864l-36.864 36.8128 44.13952 112.36352-8.6016 15.7952c-9.91232 18.5088-18.33472 39.11168-25.06752 61.30176l-5.18144 17.37216-111.0016 48.35328v52.2496l111.01184 48.37376 5.16096 17.21856c6.2464 21.66272 14.69952 42.35264 25.10336 61.37856l8.57088 15.75936-44.13952 112.34816 36.87936 36.90496 112.35328-44.43136 15.77472 8.59136c19.14368 10.30144 40.15616 18.8416 62.48448 25.4208l17.44896 5.15072 47.23712 110.6688z" p-id="8406" fill="#0ff7ab"></path><path d="M509.98784 715.61216c-111.62112 0-202.42944-90.8032-202.42944-202.41408 0-111.616 90.80832-202.42432 202.42944-202.42432 111.616 0 202.42432 90.80832 202.42432 202.42432 0.00512 111.60576-90.80832 202.41408-202.42432 202.41408z m0-313.0624c-61.01504 0-110.64832 49.6384-110.64832 110.64832s49.63328 110.6432 110.64832 110.6432c61.00992 0 110.64832-49.63328 110.64832-110.6432 0.00512-61.00992-49.6384-110.64832-110.64832-110.64832z" p-id="8407" fill="#0ff7ab"></path></svg>