<?xml version="1.0" standalone="no"?><!DOCTYPE svg PUBLIC "-//W3C//DTD SVG 1.1//EN" "http://www.w3.org/Graphics/SVG/1.1/DTD/svg11.dtd"><svg t="1591755195871" class="icon" viewBox="0 0 1024 1024" version="1.1" xmlns="http://www.w3.org/2000/svg" p-id="2589" xmlns:xlink="http://www.w3.org/1999/xlink" width="200" height="200"><defs><style type="text/css"></style></defs><path d="M703.928027 449.239535 703.928027 191.928027c0-106.008247-85.91978-191.928027-191.928027-191.928027s-191.928027 85.91978-191.928027 191.928027l0 257.311508c-77.283019 58.410096-127.952018 150.151693-127.952018 254.496564 0 176.701737 143.178308 319.880045 319.880045 319.880045s319.880045-143.178308 319.880045-319.880045C831.880045 599.391228 781.211046 507.649631 703.928027 449.239535zM512 959.640135c-141.323004 0-255.904036-114.581032-255.904036-255.904036 0-64.487817 24.630763-122.642009 63.976009-167.617144C329.09259 524.98713 341.823816 510.592528 365.047107 504.194927 383.024366 495.17431 384.047982 482.18718 384.047982 464.209921 384.047982 457.49244 384.047982 424.992628 384.047982 384.23991l95.964013 0C497.669374 384.23991 512 369.909284 512 352.251906S497.669374 320.263901 480.011996 320.263901L384.047982 320.263901c0-22.135699 0-44.07947 0-63.976009l95.964013 0C497.669374 256.287892 512 241.957266 512 224.299888S497.669374 192.311883 480.011996 192.311883L384.047982 192.311883c0-0.127952 0-0.255904 0-0.383856 0-70.629514 57.322504-127.952018 127.952018-127.952018s127.952018 57.322504 127.952018 127.952018l0 271.898038c0 31.41222 26.997876 38.193677 63.976009 72.29289 39.345246 44.975134 63.976009 103.129327 63.976009 167.617144C767.904036 845.059103 653.323004 959.640135 512 959.640135z" p-id="2590" fill="#0ff7ab"></path><path d="M671.940022 671.748094c-17.657378 0-31.988004 14.330626-31.988004 31.988004 0 70.629514-57.322504 127.952018-127.952018 127.952018-17.657378 0-31.988004 14.330626-31.988004 31.988004s14.330626 31.988004 31.988004 31.988004c106.008247 0 191.928027-85.91978 191.928027-191.928027C703.928027 686.014744 689.597401 671.748094 671.940022 671.748094z" p-id="2591" fill="#0ff7ab"></path></svg>