<?xml version="1.0" standalone="no"?><!DOCTYPE svg PUBLIC "-//W3C//DTD SVG 1.1//EN" "http://www.w3.org/Graphics/SVG/1.1/DTD/svg11.dtd"><svg t="1591755548671" class="icon" viewBox="0 0 1024 1024" version="1.1" xmlns="http://www.w3.org/2000/svg" p-id="3639" xmlns:xlink="http://www.w3.org/1999/xlink" width="200" height="200"><defs><style type="text/css"></style></defs><path d="M760 521.987V522H215a30 30 0 0 1 0-60h543v-0.013c0.334 0 0.666 0.013 1 0.013a140 140 0 1 0-138.712-159h-0.338a29.966 29.966 0 0 1-59.9 0h-0.15c0.029-0.313 0.068-0.623 0.1-0.935V302a30.038 30.038 0 0 1 0.809-6.824C573.918 197.407 657.642 122 759 122c110.457 0 200 89.543 200 200 0 110.123-89 199.448-199 199.987zM394 364.87v0.13H215a30 30 0 0 1 0-60h173a90 90 0 1 0-90-90h-0.05a29.966 29.966 0 0 1-59.9 0H238c0-0.267 0.009-0.533 0.01-0.8 0-0.067-0.01-0.132-0.01-0.2 0-0.113 0.016-0.222 0.017-0.334A149.994 149.994 0 1 1 394 364.87zM95 679a30 30 0 1 1 30-30 30 30 0 0 1-30 30z m0-157a30 30 0 1 1 30-30 30 30 0 0 1-30 30z m0-157a30 30 0 1 1 30-30 30 30 0 0 1-30 30z m120 254h417v0.237a170 170 0 1 1-178.983 171.1c0-0.112-0.017-0.221-0.017-0.334 0-0.068 0.01-0.133 0.01-0.2 0-0.267-0.01-0.533-0.01-0.8h0.05a29.966 29.966 0 0 1 59.9 0h0.05A110 110 0 1 0 623 679H215a30 30 0 0 1 0-60z" fill="#0ff7ab" p-id="3640"></path></svg>